<svg id="svg" version="1.1" xmlns="http://www.w3.org/2000/svg" xmlns:xlink="http://www.w3.org/1999/xlink" width="400" height="142.22222222222223" viewBox="0, 0, 400,142.22222222222223"><g id="svgg"><path id="path0" d="M0.000 19.819 C 0.000 35.519,0.043 39.656,0.208 39.723 C 0.375 39.790,0.375 39.810,0.208 39.820 C -0.180 39.845,-0.058 41.167,0.333 41.167 C 0.611 41.167,0.667 41.056,0.667 40.500 L 0.667 39.833 15.250 39.833 C 23.271 39.833,29.890 39.827,29.958 39.819 C 30.469 39.761,30.500 39.416,30.500 33.813 L 30.500 28.167 36.667 28.167 L 42.833 28.167 42.833 34.667 L 42.833 41.167 30.167 41.167 L 17.500 41.167 17.500 53.333 L 17.500 65.500 28.000 65.500 L 38.500 65.500 38.500 62.833 L 38.500 60.167 40.667 60.167 L 42.833 60.167 42.833 80.167 L 42.833 100.167 37.083 100.167 L 31.333 100.167 31.333 118.167 L 31.333 136.167 61.750 136.167 L 92.167 136.167 92.167 118.167 L 92.167 100.167 86.167 100.167 L 80.167 100.167 80.167 80.167 L 80.167 60.167 82.667 60.167 L 85.167 60.167 85.167 62.835 L 85.167 65.503 95.125 65.460 L 105.083 65.417 105.126 53.292 L 105.169 41.167 92.668 41.167 L 80.167 41.167 80.167 34.667 L 80.167 28.167 86.415 28.167 L 92.662 28.167 92.706 33.958 L 92.750 39.750 107.583 39.750 L 122.417 39.750 122.460 21.173 C 122.489 9.227,122.563 2.537,122.669 2.431 C 122.884 2.216,122.882 1.167,122.667 1.167 C 122.575 1.167,122.500 0.904,122.500 0.583 L 122.500 0.000 61.250 0.000 L 0.000 0.000 0.000 19.819 M120.238 1.595 C 120.473 1.830,120.500 3.685,120.500 19.516 L 120.500 37.175 120.072 37.337 C 119.470 37.567,95.585 37.557,95.156 37.327 C 94.847 37.162,94.833 36.923,94.833 31.762 C 94.833 26.998,94.803 26.357,94.570 26.268 C 94.176 26.117,78.283 26.151,78.043 26.303 C 77.885 26.403,77.827 28.170,77.793 33.842 L 77.750 41.250 61.601 41.292 C 49.808 41.324,45.392 41.284,45.226 41.147 C 45.042 40.994,45.000 39.623,45.000 33.763 C 45.000 28.388,44.949 26.516,44.800 26.367 C 44.650 26.217,42.552 26.167,36.383 26.167 L 28.167 26.167 28.167 31.633 C 28.167 35.663,28.114 37.153,27.967 37.300 C 27.711 37.555,3.262 37.591,2.594 37.337 L 2.167 37.175 2.167 19.454 C 2.167 5.894,2.214 1.686,2.367 1.533 C 2.713 1.187,119.891 1.249,120.238 1.595 M102.626 53.375 L 102.583 63.250 95.129 63.293 L 87.674 63.337 87.586 62.960 C 87.537 62.753,87.480 61.533,87.457 60.250 L 87.417 57.917 78.417 57.917 L 69.417 57.917 69.417 84.417 L 69.417 110.917 73.000 111.000 L 76.583 111.083 76.627 117.739 C 76.661 122.953,76.625 124.424,76.460 124.528 C 76.096 124.760,46.599 124.699,46.367 124.467 C 46.080 124.180,46.080 111.487,46.367 111.200 C 46.510 111.056,47.611 111.000,50.266 111.000 C 53.485 111.000,53.977 110.966,54.066 110.736 C 54.251 110.252,54.181 58.505,53.994 58.156 C 53.827 57.843,53.553 57.833,45.157 57.833 L 36.492 57.833 36.329 58.261 C 36.240 58.496,36.167 59.688,36.167 60.910 C 36.167 62.781,36.125 63.147,35.903 63.232 C 35.363 63.439,20.245 63.345,20.033 63.133 C 19.815 62.915,19.729 43.827,19.944 43.611 C 20.006 43.550,38.644 43.500,61.362 43.500 L 102.669 43.500 102.626 53.375 M51.827 60.322 C 52.068 60.772,52.068 108.062,51.827 108.511 C 51.665 108.815,51.442 108.833,47.911 108.833 L 44.167 108.833 44.167 117.667 L 44.167 126.500 61.482 126.500 C 77.118 126.500,78.807 126.474,78.899 126.236 C 78.993 125.992,79.051 109.037,78.958 108.970 C 78.935 108.953,77.267 108.897,75.250 108.845 L 71.583 108.750 71.583 84.417 L 71.583 60.083 74.667 60.083 L 77.750 60.083 77.833 81.083 L 77.917 102.083 83.683 102.167 C 88.239 102.233,89.507 102.298,89.725 102.479 C 89.980 102.691,89.998 103.968,89.959 118.479 L 89.917 134.250 61.625 134.292 L 33.333 134.334 33.333 118.427 C 33.333 105.884,33.377 102.491,33.542 102.385 C 33.656 102.311,36.262 102.212,39.333 102.167 L 44.917 102.083 44.959 81.266 C 44.990 66.219,45.053 60.387,45.188 60.225 C 45.526 59.817,51.605 59.907,51.827 60.322 M185.167 122.994 L 185.167 135.667 186.500 135.667 L 187.833 135.667 187.833 135.000 C 187.833 134.633,187.908 134.333,188.000 134.333 C 188.092 134.333,188.167 134.446,188.167 134.583 C 188.167 134.721,188.271 134.833,188.399 134.833 C 188.527 134.833,188.674 134.946,188.727 135.083 C 188.780 135.221,188.975 135.333,189.161 135.333 C 189.348 135.333,189.500 135.408,189.500 135.500 C 189.500 135.592,189.725 135.667,190.000 135.667 C 190.333 135.667,190.500 135.750,190.500 135.917 C 190.500 136.127,190.871 136.167,192.839 136.167 C 194.764 136.167,195.194 136.122,195.273 135.917 C 195.326 135.779,195.548 135.667,195.768 135.667 C 195.987 135.667,196.167 135.592,196.167 135.500 C 196.167 135.408,196.337 135.333,196.546 135.333 C 196.918 135.333,197.500 134.824,197.500 134.498 C 197.500 134.407,197.580 134.333,197.679 134.333 C 197.900 134.333,198.333 133.913,198.333 133.699 C 198.333 133.612,198.446 133.447,198.583 133.333 C 198.721 133.219,198.833 132.985,198.833 132.813 C 198.833 132.641,198.946 132.500,199.083 132.500 C 199.258 132.500,199.333 132.323,199.333 131.911 C 199.333 131.542,199.426 131.287,199.583 131.227 C 199.758 131.160,199.833 130.887,199.833 130.316 C 199.833 129.867,199.908 129.500,200.000 129.500 C 200.210 129.500,200.229 123.884,200.019 123.806 C 199.938 123.775,199.835 123.378,199.790 122.924 C 199.746 122.470,199.625 122.070,199.522 122.035 C 199.418 122.000,199.333 121.789,199.333 121.564 C 199.333 121.340,199.221 121.113,199.083 121.060 C 198.946 121.008,198.833 120.836,198.833 120.679 C 198.833 120.434,198.254 119.639,197.671 119.083 C 196.714 118.172,196.489 118.000,196.251 118.000 C 196.100 118.000,195.864 117.888,195.726 117.750 C 195.581 117.604,195.174 117.500,194.752 117.500 C 194.354 117.500,194.001 117.420,193.969 117.323 C 193.860 116.998,192.546 116.932,192.093 117.229 C 191.848 117.389,191.334 117.500,190.839 117.500 C 190.204 117.500,190.000 117.561,190.000 117.750 C 190.000 117.906,189.843 118.000,189.583 118.000 C 189.354 118.000,189.167 118.075,189.167 118.167 C 189.167 118.258,189.054 118.333,188.917 118.333 C 188.779 118.333,188.667 118.446,188.667 118.583 C 188.667 118.721,188.555 118.833,188.420 118.833 C 188.209 118.833,188.166 118.213,188.128 114.625 L 188.083 110.417 186.625 110.369 L 185.167 110.320 185.167 122.994 M117.167 123.500 L 117.167 135.667 118.500 135.667 L 119.833 135.667 119.833 130.833 L 119.833 126.000 122.250 126.000 C 123.750 126.000,124.667 126.063,124.667 126.167 C 124.667 126.258,124.779 126.333,124.917 126.333 C 125.069 126.333,125.167 126.488,125.167 126.730 C 125.167 126.948,125.278 127.219,125.415 127.332 C 125.551 127.445,125.622 127.604,125.572 127.686 C 125.521 127.767,125.564 127.833,125.667 127.833 C 125.769 127.833,125.807 127.908,125.750 128.000 C 125.693 128.092,125.721 128.167,125.812 128.167 C 125.903 128.167,126.003 128.335,126.034 128.542 C 126.066 128.748,126.183 128.898,126.296 128.875 C 126.408 128.852,126.500 128.995,126.500 129.193 C 126.500 129.390,126.688 129.798,126.917 130.098 C 127.146 130.399,127.333 130.799,127.333 130.989 C 127.333 131.184,127.442 131.333,127.583 131.333 C 127.739 131.333,127.833 131.491,127.833 131.750 C 127.833 131.979,127.908 132.167,128.000 132.167 C 128.092 132.167,128.167 132.319,128.167 132.505 C 128.167 132.691,128.279 132.887,128.417 132.940 C 128.554 132.992,128.667 133.217,128.667 133.440 C 128.667 133.662,128.779 133.887,128.917 133.940 C 129.054 133.992,129.167 134.215,129.167 134.434 C 129.167 134.654,129.234 134.833,129.315 134.833 C 129.397 134.833,129.511 135.021,129.568 135.250 C 129.670 135.656,129.712 135.667,131.170 135.667 L 132.667 135.667 132.667 135.101 C 132.667 134.752,132.571 134.499,132.417 134.440 C 132.279 134.387,132.167 134.154,132.167 133.922 C 132.167 133.690,132.100 133.500,132.018 133.500 C 131.936 133.500,131.822 133.313,131.765 133.083 C 131.707 132.854,131.587 132.667,131.497 132.667 C 131.407 132.667,131.333 132.526,131.333 132.354 C 131.333 132.182,131.221 131.947,131.083 131.833 C 130.946 131.719,130.833 131.443,130.833 131.220 C 130.833 130.991,130.760 130.859,130.667 130.917 C 130.575 130.973,130.500 130.865,130.500 130.677 C 130.500 130.488,130.421 130.333,130.323 130.333 C 130.226 130.333,130.193 130.258,130.250 130.167 C 130.307 130.075,130.282 130.000,130.196 130.000 C 130.110 130.000,129.995 129.869,129.941 129.708 C 129.836 129.397,129.482 128.805,129.317 128.667 C 129.263 128.621,129.168 128.377,129.106 128.125 C 129.044 127.873,128.920 127.667,128.830 127.667 C 128.740 127.667,128.667 127.514,128.667 127.328 C 128.667 127.142,128.554 126.946,128.417 126.894 C 128.279 126.841,128.167 126.618,128.167 126.399 C 128.167 126.179,128.093 126.000,128.002 126.000 C 127.911 126.000,127.852 125.818,127.871 125.595 C 127.889 125.373,127.963 125.227,128.035 125.272 C 128.108 125.316,128.167 125.274,128.167 125.177 C 128.167 125.079,128.279 125.000,128.417 125.000 C 128.554 125.000,128.667 124.933,128.667 124.851 C 128.667 124.770,128.854 124.656,129.083 124.598 C 129.313 124.541,129.500 124.420,129.500 124.330 C 129.500 124.240,129.612 124.167,129.750 124.167 C 129.887 124.167,130.000 124.054,130.000 123.917 C 130.000 123.779,130.080 123.667,130.179 123.667 C 130.474 123.667,130.833 123.213,130.833 122.840 C 130.833 122.647,130.946 122.446,131.083 122.394 C 131.221 122.341,131.333 122.202,131.333 122.086 C 131.333 121.969,131.446 121.781,131.583 121.667 C 131.754 121.525,131.833 121.146,131.833 120.470 C 131.833 119.926,131.895 119.519,131.971 119.565 C 132.163 119.684,132.219 118.016,132.031 117.778 C 131.946 117.671,131.838 117.218,131.790 116.771 C 131.742 116.324,131.627 115.912,131.535 115.854 C 131.443 115.797,131.339 115.563,131.305 115.333 C 131.270 115.104,131.150 114.935,131.038 114.958 C 130.925 114.981,130.833 114.882,130.833 114.738 C 130.833 114.439,130.444 114.000,130.179 114.000 C 130.080 114.000,130.000 113.888,130.000 113.750 C 130.000 113.612,129.887 113.500,129.750 113.500 C 129.612 113.500,129.500 113.388,129.500 113.250 C 129.500 113.112,129.387 113.000,129.250 113.000 C 129.112 113.000,129.000 112.925,129.000 112.833 C 129.000 112.742,128.821 112.667,128.601 112.667 C 128.382 112.667,128.159 112.554,128.106 112.417 C 128.054 112.279,127.877 112.164,127.714 112.161 C 127.550 112.158,127.271 112.046,127.093 111.911 C 126.882 111.752,126.375 111.667,125.635 111.667 C 124.989 111.667,124.500 111.595,124.500 111.500 C 124.500 111.394,123.167 111.333,120.833 111.333 L 117.167 111.333 117.167 123.500 M294.500 111.500 C 294.500 111.592,294.387 111.667,294.250 111.667 C 294.111 111.667,294.000 111.815,294.000 112.000 C 294.000 112.183,293.902 112.333,293.783 112.333 C 293.403 112.333,293.441 113.615,293.840 114.260 L 294.194 114.833 295.507 114.833 C 297.175 114.833,297.500 114.568,297.500 113.206 C 297.500 111.879,296.920 111.333,295.513 111.333 C 294.949 111.333,294.500 111.407,294.500 111.500 M258.208 113.110 C 258.057 113.172,258.000 113.781,258.000 115.347 L 258.000 117.500 255.583 117.500 L 253.167 117.500 253.167 118.833 L 253.167 120.167 255.583 120.167 L 258.000 120.167 258.000 126.505 C 258.000 131.986,258.034 132.857,258.250 132.940 C 258.387 132.992,258.500 133.215,258.500 133.434 C 258.500 133.654,258.575 133.833,258.667 133.833 C 258.758 133.833,258.833 133.946,258.833 134.083 C 258.833 134.221,258.946 134.333,259.083 134.333 C 259.221 134.333,259.333 134.406,259.333 134.494 C 259.333 134.825,260.333 135.667,260.727 135.667 C 260.949 135.667,261.174 135.779,261.227 135.917 C 261.307 136.125,261.790 136.167,264.141 136.167 C 266.443 136.167,266.997 136.121,267.167 135.917 C 267.281 135.779,267.468 135.667,267.583 135.667 C 267.896 135.667,268.223 135.221,268.008 135.088 C 267.912 135.029,267.833 134.647,267.833 134.240 L 267.833 133.500 265.167 133.500 C 263.700 133.500,262.500 133.444,262.499 133.375 C 262.498 133.306,262.273 133.122,261.999 132.966 C 261.725 132.810,261.500 132.562,261.500 132.415 C 261.500 132.267,261.425 132.193,261.333 132.250 C 261.192 132.338,261.082 131.871,261.147 131.458 C 261.158 131.390,261.054 131.333,260.917 131.333 C 260.699 131.333,260.667 130.602,260.667 125.750 L 260.667 120.167 263.909 120.167 L 267.152 120.167 267.254 119.621 C 267.310 119.321,267.332 118.740,267.303 118.330 L 267.250 117.583 263.958 117.538 L 260.667 117.493 260.667 115.246 L 260.667 113.000 259.542 113.013 C 258.923 113.020,258.323 113.064,258.208 113.110 M125.167 114.167 C 125.167 114.258,125.467 114.333,125.833 114.333 C 126.315 114.333,126.500 114.403,126.500 114.583 C 126.500 114.739,126.657 114.833,126.917 114.833 C 127.176 114.833,127.333 114.928,127.333 115.083 C 127.333 115.221,127.414 115.333,127.512 115.333 C 127.766 115.333,128.103 115.704,128.239 116.133 C 128.303 116.335,128.418 116.500,128.493 116.500 C 128.569 116.500,128.678 116.688,128.735 116.917 C 128.793 117.146,128.913 117.333,129.003 117.333 C 129.098 117.333,129.167 117.964,129.167 118.833 C 129.167 119.658,129.106 120.333,129.032 120.333 C 128.958 120.333,128.770 120.623,128.614 120.976 C 128.293 121.704,127.795 122.333,127.540 122.333 C 127.446 122.333,127.326 122.446,127.273 122.583 C 127.220 122.721,127.025 122.833,126.839 122.833 C 126.652 122.833,126.500 122.939,126.500 123.067 C 126.500 123.370,125.460 123.503,122.292 123.604 L 119.833 123.683 119.833 118.842 L 119.833 114.000 122.500 114.000 C 124.167 114.000,125.167 114.063,125.167 114.167 M157.208 117.109 C 157.002 117.154,156.833 117.260,156.833 117.345 C 156.833 117.430,156.421 117.500,155.917 117.500 C 155.213 117.500,155.000 117.558,155.000 117.750 C 155.000 117.909,154.840 118.000,154.561 118.000 C 154.302 118.000,153.957 118.178,153.721 118.432 C 153.500 118.670,153.192 118.886,153.035 118.913 C 152.878 118.939,152.769 119.045,152.792 119.147 C 152.815 119.250,152.738 119.333,152.620 119.333 C 152.259 119.333,151.833 119.919,151.833 120.417 C 151.833 120.554,151.740 120.669,151.625 120.671 C 151.400 120.675,150.833 121.692,150.833 122.090 C 150.833 122.224,150.758 122.333,150.667 122.333 C 150.575 122.333,150.500 122.625,150.500 122.982 C 150.500 123.405,150.413 123.664,150.250 123.727 C 150.041 123.807,150.000 124.309,150.000 126.810 C 150.000 129.312,150.041 129.813,150.250 129.894 C 150.415 129.957,150.500 130.218,150.500 130.661 C 150.500 131.031,150.575 131.333,150.667 131.333 C 150.758 131.333,150.833 131.521,150.833 131.750 C 150.833 132.009,150.928 132.167,151.083 132.167 C 151.239 132.167,151.333 132.324,151.333 132.583 C 151.333 132.843,151.428 133.000,151.583 133.000 C 151.721 133.000,151.833 133.072,151.833 133.161 C 151.833 133.379,152.779 134.333,152.994 134.333 C 153.089 134.333,153.167 134.446,153.167 134.583 C 153.167 134.721,153.279 134.833,153.417 134.833 C 153.554 134.833,153.667 134.907,153.667 134.997 C 153.667 135.087,153.854 135.207,154.083 135.265 C 154.313 135.322,154.500 135.436,154.500 135.518 C 154.500 135.600,154.693 135.667,154.929 135.667 C 155.164 135.667,155.470 135.779,155.607 135.917 C 155.806 136.116,156.347 136.167,158.262 136.167 C 160.288 136.167,160.667 136.127,160.667 135.917 C 160.667 135.736,160.853 135.667,161.343 135.667 C 161.752 135.667,161.979 135.601,161.917 135.500 C 161.860 135.408,161.968 135.333,162.157 135.333 C 162.346 135.333,162.500 135.254,162.500 135.157 C 162.500 135.060,162.575 135.027,162.667 135.083 C 162.758 135.140,162.833 135.107,162.833 135.010 C 162.833 134.913,162.946 134.833,163.083 134.833 C 163.221 134.833,163.333 134.721,163.333 134.583 C 163.333 134.446,163.458 134.333,163.611 134.333 C 163.764 134.333,163.845 134.290,163.792 134.236 C 163.684 134.129,164.257 133.500,164.463 133.500 C 164.534 133.500,164.740 133.163,164.921 132.752 C 165.102 132.340,165.306 132.002,165.375 132.002 C 165.444 132.001,165.500 131.779,165.500 131.508 C 165.500 131.238,165.608 130.956,165.740 130.882 C 165.885 130.801,165.996 130.438,166.021 129.966 C 166.043 129.537,166.115 129.218,166.180 129.258 C 166.422 129.408,166.500 128.749,166.500 126.564 C 166.500 124.726,166.455 124.306,166.250 124.227 C 166.075 124.160,166.000 123.887,166.000 123.316 C 166.000 122.702,165.938 122.500,165.750 122.500 C 165.593 122.500,165.500 122.341,165.500 122.071 C 165.500 121.836,165.387 121.530,165.248 121.391 C 165.110 121.253,165.035 121.079,165.081 121.004 C 165.127 120.929,165.053 120.825,164.916 120.773 C 164.779 120.720,164.667 120.562,164.667 120.422 C 164.667 120.282,164.554 120.167,164.417 120.167 C 164.279 120.167,164.167 120.067,164.167 119.945 C 164.167 119.823,163.979 119.623,163.750 119.500 C 163.521 119.377,163.333 119.177,163.333 119.055 C 163.333 118.933,163.221 118.833,163.083 118.833 C 162.946 118.833,162.833 118.775,162.833 118.703 C 162.833 118.497,161.902 118.000,161.516 118.000 C 161.317 118.000,161.167 117.893,161.167 117.750 C 161.167 117.559,160.955 117.500,160.264 117.500 C 159.742 117.500,159.335 117.421,159.299 117.312 C 159.232 117.111,157.830 116.975,157.208 117.109 M225.675 117.158 C 225.542 117.242,225.373 117.274,225.300 117.229 C 225.226 117.184,225.167 117.226,225.167 117.323 C 225.167 117.426,224.784 117.500,224.250 117.500 C 223.546 117.500,223.333 117.558,223.333 117.750 C 223.333 117.906,223.176 118.000,222.917 118.000 C 222.688 118.000,222.500 118.075,222.500 118.167 C 222.500 118.258,222.390 118.333,222.256 118.333 C 222.121 118.333,221.781 118.558,221.500 118.833 C 221.219 119.108,220.954 119.333,220.911 119.333 C 220.868 119.333,220.683 119.483,220.500 119.667 C 220.317 119.850,220.210 120.000,220.262 120.000 C 220.314 120.000,220.239 120.118,220.095 120.262 C 219.951 120.406,219.833 120.668,219.833 120.845 C 219.833 121.022,219.741 121.148,219.629 121.125 C 219.517 121.102,219.397 121.271,219.363 121.500 C 219.329 121.729,219.196 121.977,219.067 122.050 C 218.937 122.124,218.833 122.439,218.833 122.758 C 218.833 123.075,218.758 123.333,218.667 123.333 C 218.453 123.333,218.438 130.283,218.652 130.361 C 218.735 130.392,218.844 130.678,218.893 130.997 C 218.943 131.316,219.062 131.604,219.158 131.636 C 219.255 131.668,219.333 131.876,219.333 132.097 C 219.333 132.344,219.430 132.500,219.583 132.500 C 219.721 132.500,219.833 132.606,219.833 132.736 C 219.833 132.866,219.893 132.997,219.965 133.028 C 220.038 133.058,220.268 133.363,220.477 133.705 C 220.685 134.046,220.907 134.319,220.970 134.310 C 221.308 134.262,221.500 134.361,221.500 134.583 C 221.500 134.721,221.604 134.833,221.732 134.833 C 221.860 134.833,222.008 134.946,222.060 135.083 C 222.113 135.221,222.350 135.333,222.588 135.333 C 222.833 135.333,222.975 135.405,222.917 135.500 C 222.856 135.597,223.028 135.667,223.329 135.667 C 223.633 135.667,223.883 135.769,223.940 135.917 C 224.019 136.123,224.466 136.167,226.523 136.167 C 228.580 136.167,229.027 136.123,229.106 135.917 C 229.159 135.779,229.367 135.667,229.568 135.667 C 230.075 135.667,230.830 135.293,230.832 135.042 C 230.833 134.927,230.980 134.833,231.159 134.833 C 231.530 134.833,233.000 133.417,233.000 133.059 C 233.000 132.929,233.112 132.780,233.250 132.727 C 233.393 132.672,233.500 132.424,233.500 132.149 C 233.500 131.831,233.585 131.667,233.750 131.667 C 233.903 131.667,234.000 131.511,234.000 131.264 C 234.000 131.042,234.082 130.834,234.183 130.800 C 234.284 130.767,234.407 130.233,234.456 129.615 C 234.506 128.997,234.611 128.451,234.690 128.402 C 234.891 128.278,234.870 125.209,234.667 125.083 C 234.575 125.027,234.500 124.543,234.500 124.008 C 234.500 123.297,234.433 123.010,234.250 122.940 C 234.107 122.885,234.000 122.636,234.000 122.359 C 234.000 122.092,233.887 121.781,233.750 121.667 C 233.612 121.553,233.500 121.362,233.500 121.243 C 233.500 121.125,233.421 121.001,233.324 120.969 C 233.228 120.937,233.131 120.791,233.109 120.644 C 233.088 120.497,232.792 120.115,232.452 119.794 C 232.112 119.473,231.833 119.134,231.833 119.041 C 231.833 118.948,231.702 118.823,231.542 118.762 C 230.994 118.556,230.500 118.254,230.500 118.127 C 230.500 118.057,230.275 118.000,230.000 118.000 C 229.667 118.000,229.500 117.917,229.500 117.750 C 229.500 117.560,229.289 117.499,228.625 117.495 C 228.121 117.492,227.613 117.386,227.426 117.245 C 227.066 116.972,226.048 116.922,225.675 117.158 M328.106 117.251 C 327.843 117.388,327.297 117.500,326.892 117.500 C 326.392 117.500,326.126 117.580,326.060 117.750 C 326.008 117.888,325.871 118.000,325.758 118.000 C 325.455 118.000,324.567 118.468,324.332 118.752 C 324.220 118.886,324.062 118.955,323.981 118.905 C 323.900 118.855,323.833 118.931,323.833 119.073 C 323.833 119.216,323.739 119.333,323.623 119.333 C 323.423 119.333,323.146 119.735,322.904 120.375 C 322.844 120.535,322.728 120.667,322.647 120.667 C 322.566 120.667,322.500 120.819,322.500 121.005 C 322.500 121.191,322.387 121.387,322.250 121.440 C 322.112 121.492,322.000 121.717,322.000 121.940 C 322.000 122.162,321.901 122.382,321.781 122.428 C 321.651 122.478,321.545 122.834,321.522 123.298 C 321.500 123.730,321.411 124.108,321.324 124.139 C 321.109 124.215,321.117 129.283,321.333 129.417 C 321.425 129.473,321.500 129.810,321.500 130.165 C 321.500 130.519,321.612 130.922,321.750 131.060 C 321.887 131.197,322.000 131.502,322.000 131.738 C 322.000 132.008,322.093 132.167,322.250 132.167 C 322.387 132.167,322.500 132.306,322.500 132.476 C 322.500 132.646,322.688 132.987,322.917 133.234 C 323.146 133.482,323.333 133.755,323.333 133.842 C 323.333 133.929,323.407 134.000,323.498 134.000 C 323.754 134.000,324.326 134.543,324.232 134.696 C 324.185 134.772,324.264 134.833,324.407 134.833 C 324.550 134.833,324.667 134.907,324.667 134.997 C 324.667 135.087,324.854 135.207,325.083 135.265 C 325.313 135.322,325.500 135.436,325.500 135.518 C 325.500 135.600,325.754 135.667,326.066 135.667 C 326.414 135.667,326.668 135.762,326.727 135.917 C 326.806 136.123,327.244 136.167,329.227 136.167 C 331.210 136.167,331.648 136.123,331.727 135.917 C 331.780 135.779,331.998 135.667,332.212 135.667 C 332.738 135.667,333.497 135.298,333.499 135.042 C 333.499 134.927,333.655 134.833,333.845 134.833 C 334.116 134.833,335.333 133.798,335.333 133.567 C 335.333 133.538,335.521 133.239,335.750 132.901 C 335.979 132.563,336.167 132.076,336.167 131.818 C 336.167 131.561,336.286 131.283,336.431 131.202 C 336.627 131.092,336.680 130.863,336.635 130.319 L 336.573 129.583 335.287 129.529 C 334.397 129.491,334.000 129.533,334.000 129.666 C 334.000 129.771,333.887 129.970,333.750 130.107 C 333.612 130.245,333.500 130.614,333.500 130.929 C 333.500 131.243,333.425 131.500,333.333 131.500 C 333.242 131.500,333.167 131.650,333.167 131.833 C 333.167 132.019,333.056 132.167,332.917 132.167 C 332.779 132.167,332.667 132.279,332.667 132.417 C 332.667 132.554,332.569 132.667,332.450 132.667 C 332.087 132.667,331.336 133.072,331.335 133.268 C 331.334 133.370,330.916 133.496,330.405 133.549 C 329.895 133.602,329.378 133.727,329.258 133.827 C 329.095 133.962,329.014 133.944,328.941 133.754 C 328.874 133.579,328.613 133.500,328.098 133.500 C 327.688 133.500,327.308 133.427,327.253 133.338 C 327.198 133.249,326.893 133.053,326.576 132.902 C 326.259 132.752,326.000 132.525,326.000 132.398 C 326.000 132.271,325.887 132.167,325.750 132.167 C 325.612 132.167,325.500 132.086,325.500 131.988 C 325.500 131.890,325.387 131.696,325.248 131.558 C 325.110 131.420,325.040 131.237,325.092 131.152 C 325.145 131.067,325.071 130.953,324.927 130.898 C 324.784 130.843,324.667 130.626,324.667 130.417 C 324.667 130.207,324.554 129.992,324.417 129.940 C 324.223 129.866,324.167 129.542,324.167 128.515 C 324.167 127.784,324.092 127.140,324.000 127.083 C 323.908 127.027,323.833 126.835,323.833 126.657 C 323.833 126.479,323.908 126.333,324.000 126.333 C 324.097 126.333,324.167 125.798,324.167 125.060 C 324.167 124.123,324.232 123.738,324.416 123.602 C 324.554 123.500,324.682 123.216,324.702 122.970 C 324.721 122.725,324.796 122.561,324.869 122.605 C 324.941 122.650,325.000 122.612,325.000 122.522 C 325.000 122.431,325.094 122.255,325.208 122.130 C 325.323 122.005,325.498 121.756,325.598 121.576 C 325.697 121.397,326.013 121.100,326.300 120.917 C 326.586 120.733,326.823 120.490,326.827 120.375 C 326.831 120.258,327.044 120.167,327.313 120.167 C 327.577 120.167,327.886 120.054,328.000 119.917 C 328.147 119.739,328.536 119.667,329.336 119.667 C 330.185 119.667,330.488 119.729,330.560 119.917 C 330.613 120.054,330.809 120.167,330.995 120.167 C 331.181 120.167,331.333 120.240,331.333 120.330 C 331.333 120.420,331.521 120.541,331.750 120.598 C 331.979 120.656,332.167 120.770,332.167 120.851 C 332.167 120.933,332.279 121.000,332.417 121.000 C 332.554 121.000,332.667 121.112,332.667 121.250 C 332.667 121.388,332.779 121.500,332.917 121.500 C 333.070 121.500,333.167 121.656,333.167 121.903 C 333.167 122.124,333.233 122.331,333.315 122.361 C 333.396 122.392,333.500 122.744,333.545 123.145 C 333.650 124.073,333.808 124.161,335.375 124.164 L 336.667 124.167 336.667 123.518 C 336.667 123.095,336.580 122.836,336.417 122.773 C 336.262 122.714,336.167 122.460,336.167 122.104 C 336.167 121.374,335.441 119.965,334.819 119.489 C 334.556 119.288,334.381 119.058,334.430 118.978 C 334.479 118.898,334.411 118.833,334.278 118.833 C 334.145 118.833,333.992 118.721,333.940 118.583 C 333.887 118.446,333.696 118.333,333.515 118.333 C 333.334 118.333,333.140 118.258,333.083 118.167 C 333.027 118.075,332.797 118.000,332.573 118.000 C 332.323 118.000,332.167 117.904,332.167 117.750 C 332.167 117.566,331.974 117.500,331.436 117.500 C 331.034 117.500,330.490 117.388,330.227 117.251 C 329.965 117.114,329.487 117.002,329.167 117.002 C 328.846 117.002,328.369 117.114,328.106 117.251 M362.750 117.232 C 362.533 117.400,362.053 117.491,361.370 117.495 C 360.597 117.499,360.298 117.565,360.227 117.750 C 360.174 117.888,359.958 118.000,359.746 118.000 C 359.534 118.000,359.335 118.078,359.303 118.174 C 359.271 118.270,359.077 118.361,358.873 118.376 C 358.668 118.392,358.500 118.501,358.500 118.619 C 358.500 118.737,358.387 118.833,358.250 118.833 C 358.113 118.833,358.000 118.946,358.000 119.083 C 358.000 119.221,357.920 119.333,357.821 119.333 C 357.599 119.333,357.167 119.754,357.167 119.970 C 357.167 120.059,357.054 120.174,356.917 120.227 C 356.714 120.305,356.667 120.696,356.667 122.294 L 356.667 124.265 357.333 124.980 C 357.700 125.373,358.000 125.763,358.000 125.847 C 358.000 125.931,358.113 126.000,358.250 126.000 C 358.387 126.000,358.500 126.075,358.500 126.167 C 358.500 126.258,358.688 126.333,358.917 126.333 C 359.176 126.333,359.333 126.428,359.333 126.583 C 359.333 126.741,359.492 126.833,359.762 126.833 C 359.998 126.833,360.303 126.946,360.440 127.083 C 360.578 127.221,360.985 127.333,361.345 127.333 C 361.705 127.333,362.000 127.408,362.000 127.500 C 362.000 127.592,362.377 127.667,362.839 127.667 C 363.430 127.667,363.705 127.740,363.773 127.917 C 363.836 128.080,364.095 128.167,364.518 128.167 C 364.875 128.167,365.167 128.246,365.167 128.343 C 365.167 128.440,365.242 128.473,365.333 128.417 C 365.425 128.360,365.500 128.393,365.500 128.490 C 365.500 128.587,365.696 128.667,365.935 128.667 C 366.868 128.667,368.637 131.023,368.000 131.417 C 367.908 131.473,367.833 131.665,367.833 131.843 C 367.833 132.021,367.721 132.167,367.583 132.167 C 367.446 132.167,367.333 132.279,367.333 132.417 C 367.333 132.554,367.253 132.667,367.155 132.667 C 367.057 132.667,366.863 132.780,366.725 132.918 C 366.586 133.057,366.404 133.127,366.319 133.074 C 366.234 133.022,366.119 133.096,366.064 133.239 C 365.989 133.435,365.719 133.500,364.977 133.500 C 364.253 133.500,363.964 133.567,363.894 133.750 C 363.778 134.051,363.149 134.089,363.208 133.792 C 363.237 133.648,362.902 133.558,362.122 133.500 C 361.502 133.454,360.998 133.342,361.003 133.250 C 361.007 133.158,360.821 133.060,360.589 133.031 C 360.356 133.002,360.167 132.908,360.167 132.822 C 360.167 132.737,360.050 132.667,359.907 132.667 C 359.764 132.667,359.687 132.602,359.736 132.522 C 359.786 132.442,359.602 132.206,359.330 131.997 C 358.966 131.718,358.833 131.478,358.833 131.095 C 358.833 130.319,358.357 130.000,357.198 130.000 C 355.819 130.000,355.417 130.780,356.094 132.139 C 356.238 132.427,356.309 132.738,356.251 132.831 C 356.194 132.924,356.264 133.000,356.407 133.000 C 356.550 133.000,356.667 133.112,356.667 133.250 C 356.667 133.387,356.779 133.500,356.917 133.500 C 357.072 133.500,357.167 133.657,357.167 133.917 C 357.167 134.250,357.250 134.333,357.583 134.333 C 357.843 134.333,358.000 134.428,358.000 134.583 C 358.000 134.721,358.104 134.833,358.232 134.833 C 358.360 134.833,358.508 134.946,358.560 135.083 C 358.613 135.221,358.804 135.333,358.985 135.333 C 359.166 135.333,359.360 135.408,359.417 135.500 C 359.473 135.592,359.778 135.667,360.093 135.667 C 360.496 135.667,360.667 135.742,360.667 135.921 C 360.667 136.140,361.057 136.168,363.542 136.129 C 365.734 136.094,366.407 136.034,366.375 135.875 C 366.349 135.743,366.528 135.667,366.861 135.667 C 367.430 135.667,368.667 135.188,368.667 134.968 C 368.667 134.894,368.779 134.833,368.917 134.833 C 369.054 134.833,369.167 134.730,369.167 134.603 C 369.167 134.476,369.322 134.332,369.512 134.282 C 369.703 134.232,369.899 134.036,369.948 133.846 C 369.998 133.656,370.127 133.500,370.234 133.500 C 370.341 133.500,370.442 133.332,370.457 133.127 C 370.473 132.923,370.564 132.729,370.659 132.697 C 370.945 132.602,370.876 129.643,370.570 128.911 C 370.302 128.268,369.488 127.333,369.197 127.333 C 369.108 127.333,368.992 127.221,368.940 127.083 C 368.887 126.946,368.691 126.833,368.505 126.833 C 368.319 126.833,368.167 126.767,368.167 126.686 C 368.167 126.485,366.641 126.000,366.010 126.000 C 365.668 126.000,365.500 125.918,365.500 125.750 C 365.500 125.562,365.298 125.500,364.681 125.500 C 364.220 125.500,363.834 125.418,363.798 125.312 C 363.764 125.208,363.364 125.087,362.909 125.043 C 362.455 124.999,362.058 124.896,362.028 124.814 C 361.997 124.733,361.761 124.667,361.504 124.667 C 361.241 124.667,360.994 124.557,360.940 124.417 C 360.887 124.279,360.691 124.167,360.505 124.167 C 360.319 124.167,360.167 124.067,360.167 123.945 C 360.167 123.823,359.979 123.623,359.750 123.500 C 358.904 123.047,359.513 120.667,360.474 120.667 C 360.558 120.667,360.719 120.554,360.833 120.417 C 360.947 120.279,361.257 120.167,361.520 120.167 C 361.836 120.167,362.000 120.081,362.000 119.917 C 362.000 119.714,362.269 119.667,363.417 119.667 C 364.565 119.667,364.833 119.714,364.833 119.917 C 364.833 120.090,365.007 120.167,365.399 120.167 C 365.748 120.167,366.001 120.262,366.060 120.417 C 366.113 120.554,366.290 120.669,366.453 120.672 C 366.866 120.679,367.333 121.065,367.333 121.399 C 367.333 121.552,367.446 121.720,367.583 121.773 C 367.746 121.835,367.833 122.094,367.833 122.515 C 367.833 123.287,368.045 123.377,369.672 123.301 L 370.750 123.250 370.800 122.375 C 370.831 121.842,370.782 121.500,370.675 121.500 C 370.579 121.500,370.500 121.319,370.500 121.097 C 370.500 120.551,370.331 120.148,370.149 120.261 C 370.067 120.312,370.000 120.247,370.000 120.117 C 370.000 119.986,369.813 119.739,369.583 119.567 C 369.354 119.395,369.167 119.160,369.167 119.044 C 369.167 118.928,369.062 118.833,368.934 118.833 C 368.807 118.833,368.659 118.721,368.606 118.583 C 368.554 118.446,368.358 118.333,368.172 118.333 C 367.986 118.333,367.833 118.258,367.833 118.167 C 367.833 118.075,367.608 118.000,367.333 118.000 C 367.000 118.000,366.833 117.917,366.833 117.750 C 366.833 117.554,366.603 117.500,365.764 117.500 C 365.176 117.500,364.669 117.426,364.639 117.336 C 364.535 117.028,363.114 116.950,362.750 117.232 M288.167 118.833 L 288.167 120.167 291.083 120.167 L 294.000 120.167 294.000 126.833 L 294.000 133.500 291.083 133.500 L 288.167 133.500 288.167 134.583 L 288.167 135.667 295.500 135.667 L 302.833 135.667 302.833 134.583 L 302.833 133.500 300.000 133.500 L 297.167 133.500 297.167 125.601 C 297.167 118.552,297.138 117.691,296.903 117.601 C 296.758 117.546,294.733 117.500,292.403 117.500 L 288.167 117.500 288.167 118.833 M159.333 119.917 C 159.333 120.069,159.488 120.167,159.730 120.167 C 159.948 120.167,160.219 120.279,160.333 120.417 C 160.447 120.554,160.643 120.667,160.769 120.667 C 161.073 120.667,161.672 121.190,161.565 121.363 C 161.518 121.438,161.597 121.500,161.740 121.500 C 161.883 121.500,162.000 121.612,162.000 121.750 C 162.000 121.888,162.112 122.000,162.250 122.000 C 162.403 122.000,162.500 122.156,162.500 122.403 C 162.500 122.624,162.578 122.832,162.674 122.864 C 162.770 122.895,162.861 123.087,162.876 123.290 C 162.891 123.492,163.000 123.695,163.118 123.740 C 163.257 123.793,163.333 124.140,163.333 124.713 C 163.333 125.237,163.434 125.736,163.578 125.926 C 163.903 126.356,163.906 127.270,163.583 127.394 C 163.396 127.465,163.333 127.765,163.333 128.588 C 163.333 129.192,163.266 129.645,163.184 129.594 C 163.002 129.482,162.833 129.885,162.833 130.430 C 162.833 130.652,162.758 130.833,162.667 130.833 C 162.575 130.833,162.500 130.946,162.500 131.083 C 162.500 131.221,162.379 131.333,162.232 131.333 C 162.079 131.333,162.000 131.427,162.049 131.554 C 162.095 131.675,161.991 131.863,161.817 131.972 C 161.643 132.080,161.500 132.281,161.500 132.418 C 161.500 132.631,161.375 132.684,160.912 132.663 C 160.864 132.661,160.653 132.844,160.444 133.070 C 160.159 133.377,159.865 133.492,159.281 133.522 C 158.768 133.548,158.500 133.637,158.500 133.781 C 158.500 134.082,158.058 134.058,157.940 133.750 C 157.872 133.574,157.597 133.500,157.005 133.500 C 156.357 133.500,156.167 133.441,156.167 133.240 C 156.167 133.097,156.100 133.021,156.019 133.072 C 155.938 133.122,155.778 133.051,155.665 132.915 C 155.552 132.778,155.318 132.667,155.146 132.667 C 154.974 132.667,154.833 132.582,154.833 132.477 C 154.833 132.373,154.646 132.114,154.417 131.902 C 154.188 131.690,154.000 131.362,154.000 131.175 C 154.000 130.987,153.906 130.852,153.792 130.875 C 153.674 130.898,153.560 130.716,153.531 130.458 C 153.502 130.206,153.408 130.000,153.322 130.000 C 153.237 130.000,153.167 129.705,153.167 129.345 C 153.167 128.985,153.054 128.578,152.917 128.440 C 152.730 128.253,152.667 127.793,152.667 126.613 C 152.667 125.365,152.719 125.016,152.917 124.940 C 153.074 124.880,153.167 124.625,153.167 124.255 C 153.167 123.932,153.242 123.667,153.333 123.667 C 153.425 123.667,153.500 123.479,153.500 123.250 C 153.500 123.021,153.574 122.833,153.663 122.833 C 153.753 122.833,153.873 122.651,153.929 122.429 C 153.984 122.206,154.211 121.888,154.432 121.722 C 154.653 121.557,154.833 121.326,154.833 121.210 C 154.833 121.095,154.928 121.000,155.044 121.000 C 155.160 121.000,155.395 120.813,155.567 120.583 C 155.743 120.348,156.049 120.167,156.267 120.167 C 156.479 120.167,156.750 120.057,156.868 119.923 C 157.180 119.570,159.333 119.565,159.333 119.917 M193.560 119.917 C 193.613 120.054,193.846 120.167,194.078 120.167 C 194.310 120.167,194.500 120.234,194.500 120.315 C 194.500 120.397,194.688 120.511,194.917 120.568 C 195.146 120.626,195.333 120.747,195.333 120.837 C 195.333 120.926,195.429 121.000,195.547 121.000 C 195.745 121.000,196.237 121.927,196.188 122.208 C 196.176 122.277,196.279 122.333,196.417 122.333 C 196.581 122.333,196.667 122.498,196.667 122.813 C 196.667 123.077,196.779 123.386,196.917 123.500 C 197.082 123.637,197.167 124.010,197.167 124.604 C 197.167 125.097,197.242 125.500,197.333 125.500 C 197.429 125.500,197.500 126.000,197.500 126.667 C 197.500 127.333,197.429 127.833,197.333 127.833 C 197.239 127.833,197.167 128.306,197.167 128.917 C 197.167 129.769,197.113 130.000,196.917 130.000 C 196.777 130.000,196.667 130.149,196.667 130.337 C 196.667 130.756,195.926 131.956,195.350 132.469 C 195.112 132.681,194.756 133.000,194.560 133.177 C 194.165 133.534,190.833 133.676,190.833 133.337 C 190.833 133.247,190.646 133.126,190.417 133.068 C 190.188 133.011,190.000 132.897,190.000 132.815 C 190.000 132.734,189.919 132.667,189.821 132.667 C 189.587 132.667,188.667 131.746,188.667 131.513 C 188.667 131.414,188.554 131.333,188.417 131.333 C 188.201 131.333,188.167 130.722,188.167 126.833 C 188.167 122.944,188.201 122.333,188.417 122.333 C 188.554 122.333,188.667 122.198,188.667 122.032 C 188.667 121.640,189.619 120.667,190.002 120.667 C 190.165 120.667,190.341 120.554,190.394 120.417 C 190.450 120.270,190.700 120.167,191.000 120.167 C 191.300 120.167,191.550 120.064,191.606 119.917 C 191.675 119.738,191.954 119.667,192.583 119.667 C 193.213 119.667,193.492 119.738,193.560 119.917 M227.833 119.917 C 227.833 120.054,227.979 120.167,228.158 120.167 C 228.337 120.167,228.685 120.354,228.932 120.583 C 229.180 120.813,229.521 121.000,229.691 121.000 C 229.861 121.000,230.000 121.104,230.000 121.232 C 230.000 121.360,230.112 121.508,230.250 121.560 C 230.387 121.613,230.500 121.809,230.500 121.995 C 230.500 122.181,230.575 122.333,230.667 122.333 C 230.758 122.333,230.833 122.437,230.833 122.563 C 230.833 122.689,230.946 122.886,231.083 123.000 C 231.221 123.114,231.333 123.423,231.333 123.687 C 231.333 124.002,231.419 124.167,231.583 124.167 C 231.795 124.167,231.833 124.574,231.833 126.833 C 231.833 129.093,231.795 129.500,231.583 129.500 C 231.431 129.500,231.333 129.655,231.333 129.896 C 231.333 130.114,231.222 130.385,231.085 130.498 C 230.949 130.612,230.878 130.772,230.929 130.854 C 231.053 131.053,228.916 133.167,228.590 133.167 C 228.449 133.167,228.333 133.242,228.333 133.333 C 228.333 133.425,228.058 133.500,227.721 133.500 C 227.378 133.500,226.971 133.625,226.795 133.785 C 226.542 134.014,226.453 134.027,226.344 133.850 C 226.269 133.729,225.862 133.591,225.440 133.544 C 225.018 133.496,224.587 133.354,224.482 133.229 C 224.378 133.103,224.189 133.000,224.063 133.000 C 223.937 133.000,223.833 132.925,223.833 132.833 C 223.833 132.742,223.758 132.667,223.667 132.667 C 223.490 132.667,222.833 132.066,222.833 131.905 C 222.833 131.852,222.740 131.705,222.625 131.577 C 222.111 131.004,222.000 130.832,222.000 130.608 C 222.000 130.477,221.887 130.326,221.750 130.273 C 221.593 130.213,221.500 129.958,221.500 129.589 C 221.500 129.265,221.425 129.000,221.333 129.000 C 221.231 129.000,221.167 128.170,221.167 126.843 C 221.167 125.585,221.236 124.643,221.333 124.583 C 221.425 124.527,221.500 124.231,221.500 123.927 C 221.500 123.623,221.612 123.281,221.750 123.167 C 221.887 123.053,222.000 122.818,222.000 122.646 C 222.000 122.474,222.112 122.333,222.250 122.333 C 222.387 122.333,222.500 122.237,222.500 122.120 C 222.500 122.003,222.650 121.799,222.833 121.667 C 223.017 121.535,223.167 121.330,223.167 121.213 C 223.167 121.096,223.252 121.000,223.356 121.000 C 223.460 121.000,223.719 120.813,223.931 120.583 C 224.144 120.354,224.499 120.167,224.722 120.167 C 224.944 120.167,225.219 120.054,225.333 119.917 C 225.481 119.739,225.872 119.667,226.687 119.667 C 227.595 119.667,227.833 119.719,227.833 119.917 " stroke="none" fill="#dbdada" fill-rule="evenodd"></path><path id="path1" d="M2.611 1.944 C 2.550 2.006,2.500 9.956,2.500 19.611 L 2.500 37.167 15.167 37.167 L 27.833 37.167 27.833 31.764 C 27.833 28.792,27.879 26.242,27.934 26.097 C 28.067 25.751,44.789 25.689,45.133 26.033 C 45.283 26.183,45.334 28.053,45.336 33.408 C 45.337 37.355,45.398 40.677,45.471 40.793 C 45.577 40.958,48.912 40.993,61.594 40.959 L 77.583 40.917 77.671 33.417 C 77.719 29.292,77.775 25.898,77.796 25.875 C 77.998 25.649,94.977 25.867,95.066 26.097 C 95.121 26.242,95.167 28.792,95.167 31.764 L 95.167 37.167 107.583 37.167 L 120.000 37.167 120.000 19.500 L 120.000 1.833 61.361 1.833 C 29.110 1.833,2.672 1.883,2.611 1.944 M45.436 60.593 C 45.380 60.740,45.333 70.183,45.333 81.577 C 45.333 98.659,45.294 102.325,45.111 102.477 C 44.960 102.603,43.068 102.676,39.236 102.706 L 33.583 102.750 33.541 118.323 C 33.507 130.671,33.542 133.923,33.707 134.029 C 33.823 134.102,46.460 134.163,61.792 134.164 L 89.667 134.167 89.667 118.417 L 89.667 102.667 83.750 102.667 C 80.496 102.667,77.815 102.648,77.793 102.625 C 77.771 102.602,77.715 93.096,77.668 81.500 L 77.583 60.417 74.667 60.417 L 71.750 60.417 71.750 84.417 L 71.750 108.417 75.417 108.500 L 79.083 108.583 79.126 117.626 L 79.170 126.668 61.543 126.626 L 43.917 126.583 43.871 117.917 C 43.845 113.150,43.865 109.083,43.915 108.878 C 44.004 108.509,44.032 108.506,47.711 108.462 L 51.417 108.417 51.417 84.417 L 51.417 60.417 48.478 60.371 C 45.907 60.331,45.526 60.359,45.436 60.593 " stroke="none" fill="#141414" fill-rule="evenodd"></path><path id="path2" d="M20.109 43.625 C 20.067 43.694,38.587 43.731,61.266 43.708 L 102.500 43.665 102.500 53.331 L 102.500 62.997 95.083 63.043 L 87.667 63.089 95.125 63.086 L 102.583 63.083 102.583 53.333 L 102.583 43.583 61.385 43.541 C 38.726 43.518,20.152 43.556,20.109 43.625 M203.224 46.245 C 202.793 46.547,202.630 49.854,203.034 50.106 C 203.366 50.313,203.867 50.356,203.750 50.167 C 203.611 49.942,203.939 49.956,204.383 50.193 C 204.581 50.299,205.298 50.406,205.976 50.431 C 206.654 50.455,207.289 50.556,207.388 50.654 C 207.486 50.753,207.739 50.833,207.950 50.833 C 208.180 50.833,208.333 50.934,208.333 51.083 C 208.333 51.221,208.446 51.333,208.583 51.333 C 208.721 51.333,208.833 51.450,208.833 51.593 C 208.833 51.736,208.908 51.807,209.000 51.750 C 209.092 51.693,209.167 51.764,209.167 51.907 C 209.167 52.050,209.232 52.167,209.313 52.167 C 209.449 52.167,209.738 53.097,209.689 53.375 C 209.677 53.444,209.742 53.500,209.833 53.500 C 209.944 53.500,210.000 60.722,210.000 74.833 C 210.000 88.668,209.943 96.167,209.837 96.167 C 209.747 96.167,209.626 96.373,209.569 96.625 C 209.392 97.410,209.094 98.000,208.876 98.000 C 208.761 98.000,208.667 98.117,208.667 98.260 C 208.667 98.403,208.592 98.473,208.500 98.417 C 208.408 98.360,208.333 98.431,208.333 98.573 C 208.333 98.719,208.192 98.833,208.012 98.833 C 207.835 98.833,207.582 98.942,207.450 99.074 C 207.284 99.239,206.771 99.325,205.813 99.348 C 204.860 99.371,204.287 99.466,204.008 99.649 C 203.627 99.898,203.607 99.896,203.711 99.625 C 203.855 99.250,203.456 99.234,203.090 99.601 C 202.872 99.818,202.831 100.185,202.869 101.559 L 202.917 103.250 213.792 103.293 L 224.667 103.336 224.667 101.535 C 224.667 99.708,224.554 99.330,224.008 99.336 C 223.781 99.338,223.780 99.358,224.000 99.500 C 224.194 99.625,224.145 99.662,223.782 99.664 C 223.524 99.666,223.352 99.605,223.399 99.529 C 223.445 99.453,222.835 99.378,222.042 99.360 C 221.249 99.343,220.559 99.274,220.508 99.206 C 220.359 99.007,219.327 98.500,219.070 98.500 C 218.940 98.500,218.833 98.386,218.833 98.248 C 218.833 97.927,218.491 97.315,218.167 97.058 C 217.946 96.884,217.917 93.864,217.917 71.690 L 217.917 46.520 210.851 46.505 C 206.965 46.497,203.703 46.436,203.601 46.370 C 203.500 46.304,206.529 46.211,210.333 46.164 L 217.250 46.078 210.412 46.039 C 204.616 46.006,203.521 46.037,203.224 46.245 M311.333 46.655 C 311.333 46.741,311.182 46.859,310.998 46.917 C 310.813 46.976,310.705 47.094,310.757 47.179 C 310.810 47.264,310.774 47.343,310.677 47.354 C 310.579 47.366,310.406 47.384,310.292 47.396 C 310.177 47.407,310.074 47.510,310.063 47.625 C 310.051 47.740,310.032 47.950,310.021 48.093 C 310.009 48.236,309.934 48.312,309.852 48.262 C 309.689 48.161,309.506 48.705,309.502 49.302 C 309.501 49.515,309.426 49.641,309.333 49.583 C 309.226 49.517,309.167 50.078,309.167 51.147 C 309.167 52.078,309.240 52.859,309.333 52.917 C 309.425 52.973,309.500 53.162,309.500 53.336 C 309.500 53.793,310.047 54.824,310.292 54.829 C 310.406 54.831,310.500 54.946,310.500 55.083 C 310.500 55.221,310.612 55.333,310.750 55.333 C 310.888 55.333,310.981 55.424,310.958 55.534 C 310.935 55.645,311.096 55.738,311.319 55.742 C 311.541 55.747,311.753 55.844,311.792 55.958 C 311.842 56.110,312.408 56.167,313.857 56.167 C 315.027 56.167,315.814 56.103,315.758 56.014 C 315.706 55.929,315.889 55.811,316.165 55.750 C 316.441 55.690,316.667 55.576,316.667 55.498 C 316.667 55.420,316.816 55.308,317.000 55.250 C 317.183 55.192,317.378 54.964,317.433 54.744 C 317.488 54.524,317.618 54.361,317.721 54.381 C 317.824 54.400,317.936 54.229,317.970 54.000 C 318.003 53.771,318.137 53.463,318.268 53.317 C 318.576 52.972,318.585 49.155,318.277 49.213 C 318.170 49.234,318.060 49.007,318.031 48.708 C 317.999 48.373,317.888 48.167,317.739 48.167 C 317.608 48.167,317.500 48.020,317.500 47.842 C 317.500 47.663,317.369 47.443,317.208 47.353 C 317.048 47.264,316.917 47.130,316.917 47.057 C 316.917 46.984,316.768 46.902,316.587 46.874 C 316.406 46.846,316.184 46.751,316.095 46.662 C 315.887 46.453,311.333 46.447,311.333 46.655 M283.165 53.639 C 283.073 53.670,283.040 53.764,283.092 53.848 C 283.144 53.931,283.126 54.000,283.052 54.000 C 282.977 54.000,282.894 54.350,282.867 54.777 C 282.839 55.204,282.745 55.687,282.658 55.849 C 282.571 56.012,282.500 56.377,282.500 56.661 C 282.500 56.966,282.398 57.216,282.250 57.273 C 282.096 57.332,282.000 57.586,282.000 57.934 C 282.000 58.336,281.924 58.500,281.740 58.500 C 281.597 58.500,281.517 58.559,281.562 58.632 C 281.607 58.704,281.544 58.985,281.422 59.257 C 281.301 59.528,281.156 59.886,281.102 60.052 C 281.047 60.218,280.938 60.315,280.859 60.266 C 280.781 60.217,280.618 60.475,280.498 60.839 C 280.378 61.202,280.179 61.500,280.057 61.500 C 279.934 61.500,279.833 61.612,279.833 61.750 C 279.833 61.887,279.721 62.000,279.583 62.000 C 279.446 62.000,279.333 62.094,279.333 62.210 C 279.333 62.325,279.175 62.518,278.983 62.639 C 278.692 62.820,278.651 62.820,278.745 62.637 C 278.807 62.516,278.759 62.536,278.637 62.681 C 278.516 62.827,278.323 62.914,278.208 62.876 C 278.094 62.837,278.000 62.924,278.000 63.069 C 278.000 63.240,277.852 63.333,277.583 63.333 C 277.324 63.333,277.167 63.428,277.167 63.583 C 277.167 63.768,276.973 63.833,276.427 63.833 C 276.019 63.833,275.640 63.908,275.583 64.000 C 275.527 64.092,275.145 64.167,274.735 64.167 L 273.989 64.167 274.036 65.958 L 274.083 67.750 276.708 67.796 L 279.333 67.842 279.356 79.879 C 279.382 93.392,279.372 92.681,279.545 92.947 C 279.615 93.055,279.591 93.194,279.492 93.255 C 279.369 93.331,279.391 93.455,279.560 93.642 C 279.731 93.830,279.832 94.416,279.882 95.500 C 279.963 97.267,280.209 98.542,280.484 98.634 C 280.585 98.667,280.667 98.913,280.667 99.181 C 280.667 99.502,280.752 99.667,280.917 99.667 C 281.123 99.667,281.275 100.194,281.125 100.387 C 281.050 100.483,281.638 101.000,281.821 101.000 C 281.920 101.000,282.000 101.112,282.000 101.250 C 282.000 101.388,282.112 101.500,282.250 101.500 C 282.387 101.500,282.500 101.580,282.500 101.679 C 282.500 101.907,282.834 102.237,283.208 102.379 C 283.369 102.440,283.500 102.567,283.500 102.661 C 283.500 102.756,283.641 102.833,283.813 102.833 C 283.985 102.833,284.219 102.946,284.333 103.083 C 284.447 103.221,284.677 103.333,284.844 103.333 C 285.011 103.333,285.184 103.393,285.229 103.467 C 285.275 103.540,285.636 103.618,286.031 103.639 C 286.932 103.688,287.364 103.816,287.250 103.999 C 287.202 104.077,288.655 104.150,290.478 104.160 C 293.228 104.175,293.809 104.137,293.886 103.937 C 293.947 103.776,294.329 103.667,295.031 103.610 C 296.833 103.462,297.298 103.329,297.593 102.879 C 297.744 102.648,297.785 102.510,297.684 102.573 C 297.443 102.722,297.430 99.804,297.671 99.563 C 297.959 99.274,297.284 98.798,296.770 98.927 C 296.530 98.987,296.333 99.103,296.333 99.185 C 296.333 99.266,295.096 99.333,293.583 99.333 C 291.361 99.333,290.833 99.289,290.833 99.104 C 290.833 98.966,290.654 98.875,290.382 98.875 C 290.134 98.875,289.902 98.789,289.867 98.684 C 289.832 98.579,289.585 98.380,289.318 98.242 C 289.052 98.104,288.833 97.892,288.833 97.772 C 288.833 97.651,288.683 97.416,288.500 97.250 C 288.317 97.084,288.167 96.810,288.167 96.641 C 288.167 96.472,288.092 96.333,288.000 96.333 C 287.908 96.333,287.833 96.076,287.833 95.762 C 287.833 95.448,287.721 95.078,287.583 94.940 C 287.365 94.722,287.333 92.976,287.333 81.262 L 287.333 67.833 292.050 67.833 C 297.659 67.833,297.167 68.068,297.167 65.395 C 297.167 62.598,297.643 62.833,291.988 62.833 L 287.333 62.833 287.333 58.328 C 287.333 54.827,287.286 53.805,287.120 53.741 C 286.872 53.646,283.411 53.557,283.165 53.639 M36.208 57.777 C 36.054 57.839,36.000 58.531,36.000 60.429 L 36.000 62.997 28.042 63.042 L 20.083 63.088 28.083 63.086 L 36.083 63.083 36.167 60.500 L 36.250 57.917 45.167 57.831 L 54.083 57.746 45.250 57.719 C 40.392 57.705,36.323 57.731,36.208 57.777 M78.363 57.791 C 85.439 57.826,87.492 57.882,87.546 58.043 C 87.585 58.160,87.607 58.141,87.597 58.000 C 87.581 57.781,86.440 57.750,78.414 57.748 L 69.250 57.746 78.363 57.791 M54.208 84.446 C 54.169 109.552,54.151 110.980,53.875 111.052 C 53.602 111.123,53.602 111.129,53.880 111.147 C 54.350 111.178,54.338 112.006,54.292 84.333 L 54.249 57.917 54.208 84.446 M69.207 84.448 C 69.185 99.041,69.223 111.015,69.292 111.058 C 69.405 111.127,69.404 92.926,69.290 67.500 C 69.267 62.229,69.229 69.856,69.207 84.448 M87.545 59.167 C 87.545 59.579,87.578 59.748,87.618 59.542 C 87.657 59.335,87.657 58.998,87.618 58.792 C 87.578 58.585,87.545 58.754,87.545 59.167 M174.938 62.255 C 174.864 62.446,174.502 62.500,173.289 62.500 C 172.433 62.500,171.662 62.571,171.575 62.658 C 171.488 62.745,171.095 62.834,170.701 62.857 C 170.308 62.880,169.905 62.997,169.806 63.116 C 169.707 63.236,169.410 63.333,169.146 63.333 C 168.831 63.333,168.667 63.419,168.667 63.583 C 168.667 63.737,168.511 63.833,168.264 63.833 C 168.042 63.833,167.835 63.912,167.803 64.007 C 167.771 64.103,167.577 64.194,167.373 64.210 C 167.168 64.225,167.000 64.334,167.000 64.452 C 167.000 64.570,166.890 64.667,166.756 64.667 C 166.621 64.667,166.265 64.909,165.964 65.206 C 165.663 65.503,165.360 65.728,165.292 65.706 C 165.223 65.684,165.167 65.854,165.167 66.083 C 165.167 66.343,165.072 66.500,164.917 66.500 C 164.761 66.500,164.667 66.657,164.667 66.917 C 164.667 67.176,164.572 67.333,164.417 67.333 C 164.061 67.333,164.047 71.523,164.402 71.878 C 164.531 72.007,164.662 72.294,164.693 72.515 C 164.724 72.736,164.862 72.918,165.000 72.920 C 165.137 72.922,165.232 73.038,165.209 73.177 C 165.184 73.331,165.309 73.440,165.531 73.457 C 165.731 73.472,165.959 73.600,166.039 73.742 C 166.118 73.884,166.367 74.000,166.592 74.000 C 166.816 74.000,167.000 74.075,167.000 74.167 C 167.000 74.258,167.412 74.333,167.917 74.333 C 168.561 74.333,168.821 74.395,168.792 74.542 C 168.762 74.690,169.114 74.764,170.022 74.800 L 171.293 74.849 171.322 73.054 C 171.338 72.067,171.419 71.217,171.503 71.165 C 171.587 71.113,171.675 70.825,171.698 70.525 C 171.720 70.226,171.835 69.901,171.953 69.803 C 172.070 69.706,172.167 69.502,172.167 69.350 C 172.167 69.031,173.058 68.000,173.334 68.000 C 173.436 68.000,173.466 67.913,173.401 67.808 C 173.332 67.697,173.355 67.660,173.453 67.721 C 173.547 67.779,173.793 67.680,174.000 67.500 C 174.207 67.320,174.442 67.214,174.523 67.264 C 174.603 67.314,174.714 67.237,174.769 67.094 C 174.915 66.713,180.081 66.703,180.227 67.083 C 180.280 67.221,180.513 67.333,180.745 67.333 C 180.977 67.333,181.167 67.407,181.167 67.497 C 181.167 67.587,181.354 67.707,181.583 67.765 C 181.813 67.822,182.000 67.936,182.000 68.018 C 182.000 68.100,182.112 68.167,182.250 68.167 C 182.387 68.167,182.500 68.304,182.500 68.471 C 182.500 68.638,182.688 68.951,182.917 69.167 C 183.146 69.382,183.333 69.733,183.333 69.946 C 183.333 70.159,183.427 70.334,183.542 70.336 C 183.693 70.338,183.688 70.378,183.522 70.483 C 183.333 70.603,183.339 70.653,183.556 70.775 C 183.764 70.891,183.824 71.261,183.846 72.547 C 183.861 73.441,183.939 74.213,184.020 74.262 C 184.101 74.312,184.167 75.474,184.167 76.843 L 184.167 79.333 182.625 79.360 C 181.777 79.374,180.935 79.372,180.753 79.355 C 180.437 79.325,180.436 79.333,180.728 79.547 C 180.987 79.736,180.517 79.772,177.642 79.782 C 174.303 79.793,173.924 79.817,173.573 80.037 C 173.476 80.097,172.899 80.163,172.290 80.183 C 171.598 80.205,171.196 80.287,171.217 80.401 C 171.236 80.505,170.927 80.606,170.500 80.637 C 170.088 80.666,169.632 80.797,169.487 80.929 C 169.342 81.060,169.186 81.131,169.141 81.086 C 169.096 81.041,168.654 81.147,168.158 81.321 C 167.662 81.496,167.187 81.596,167.102 81.544 C 167.018 81.491,166.997 81.528,167.057 81.625 C 167.181 81.825,166.263 82.200,166.071 82.028 C 166.002 81.967,165.997 82.005,166.059 82.113 C 166.125 82.227,166.031 82.354,165.836 82.416 C 165.651 82.475,165.500 82.584,165.500 82.658 C 165.500 82.733,165.369 82.842,165.208 82.900 C 164.764 83.061,164.062 83.495,164.243 83.498 C 164.330 83.499,164.068 83.812,163.659 84.192 C 163.251 84.573,162.917 84.945,162.917 85.017 C 162.917 85.090,162.823 85.244,162.708 85.358 C 162.594 85.473,162.500 85.664,162.500 85.783 C 162.500 85.903,162.387 86.000,162.250 86.000 C 162.082 86.000,162.000 86.168,162.000 86.510 C 162.000 86.807,161.931 86.977,161.833 86.917 C 161.742 86.860,161.660 86.874,161.653 86.948 C 161.587 87.595,161.446 88.115,161.281 88.320 C 161.120 88.518,161.130 88.538,161.333 88.424 C 161.537 88.311,161.544 88.326,161.375 88.509 C 161.087 88.819,161.074 95.941,161.361 96.037 C 161.468 96.073,161.556 96.376,161.556 96.710 C 161.556 97.045,161.610 97.285,161.677 97.244 C 161.824 97.153,162.000 97.573,162.000 98.014 C 162.000 98.189,162.112 98.333,162.250 98.333 C 162.418 98.333,162.500 98.501,162.500 98.843 C 162.500 99.141,162.569 99.310,162.667 99.250 C 162.758 99.193,162.833 99.266,162.833 99.412 C 162.833 99.558,162.945 99.720,163.082 99.773 C 163.219 99.825,163.292 99.932,163.244 100.009 C 163.197 100.087,163.309 100.231,163.495 100.331 C 163.681 100.430,163.833 100.614,163.833 100.738 C 163.833 100.863,163.951 101.009,164.094 101.064 C 164.237 101.119,164.308 101.240,164.251 101.332 C 164.194 101.424,164.256 101.500,164.389 101.500 C 164.523 101.500,164.808 101.686,165.024 101.914 C 165.240 102.141,165.540 102.329,165.691 102.330 C 165.841 102.332,166.008 102.446,166.060 102.583 C 166.113 102.721,166.350 102.833,166.588 102.833 C 166.825 102.833,166.978 102.900,166.927 102.983 C 166.821 103.155,167.210 103.333,167.690 103.333 C 167.871 103.333,167.982 103.395,167.936 103.469 C 167.889 103.544,168.204 103.622,168.634 103.642 C 169.578 103.686,170.034 103.810,169.922 103.992 C 169.876 104.066,171.225 104.140,172.921 104.155 C 175.571 104.180,176.018 104.148,176.103 103.925 C 176.164 103.766,176.407 103.667,176.734 103.667 C 177.027 103.667,177.346 103.587,177.444 103.490 C 177.541 103.392,177.863 103.305,178.159 103.297 C 178.455 103.289,178.733 103.188,178.777 103.073 C 178.821 102.958,179.040 102.818,179.262 102.762 C 179.485 102.706,179.667 102.587,179.667 102.497 C 179.667 102.407,179.731 102.333,179.810 102.333 C 179.889 102.333,180.232 102.070,180.573 101.748 C 180.915 101.427,181.264 101.207,181.351 101.261 C 181.437 101.314,181.488 101.289,181.462 101.205 C 181.437 101.120,181.642 100.831,181.917 100.562 C 182.192 100.293,182.527 99.906,182.662 99.703 C 182.797 99.500,183.003 99.333,183.120 99.333 C 183.237 99.333,183.333 99.229,183.333 99.101 C 183.333 98.973,183.451 98.824,183.594 98.769 C 183.737 98.714,183.808 98.593,183.751 98.501 C 183.694 98.409,183.764 98.333,183.907 98.333 C 184.070 98.333,184.167 98.185,184.167 97.934 C 184.167 97.715,184.279 97.492,184.417 97.440 C 184.584 97.376,184.667 97.447,184.667 97.654 C 184.667 97.825,184.779 98.008,184.917 98.060 C 185.106 98.133,185.167 98.440,185.167 99.328 C 185.167 99.973,185.231 100.500,185.309 100.500 C 185.388 100.500,185.495 101.074,185.548 101.775 C 185.674 103.435,185.273 103.328,191.375 103.331 L 196.667 103.333 196.667 101.510 C 196.667 99.316,196.761 99.411,194.542 99.352 C 194.085 99.340,193.848 99.262,193.875 99.133 C 193.915 98.942,193.826 98.902,193.250 98.854 C 193.112 98.843,193.000 98.748,193.000 98.645 C 193.000 98.541,192.843 98.320,192.651 98.153 C 192.448 97.977,192.355 97.767,192.427 97.650 C 192.506 97.522,192.481 97.492,192.359 97.567 C 192.224 97.651,192.167 97.456,192.167 96.917 C 192.167 96.466,192.100 96.188,192.006 96.246 C 191.904 96.309,191.843 91.926,191.837 84.175 C 191.830 75.415,191.774 71.877,191.636 71.545 C 191.373 70.911,191.378 70.935,191.354 70.000 C 191.339 69.380,191.269 69.167,191.083 69.167 C 190.930 69.167,190.833 69.011,190.833 68.764 C 190.833 68.542,190.751 68.334,190.651 68.300 C 190.551 68.267,190.457 68.036,190.443 67.787 C 190.429 67.537,190.323 67.334,190.208 67.333 C 190.094 67.333,190.000 67.232,190.000 67.109 C 190.000 66.986,189.813 66.667,189.584 66.401 C 189.354 66.135,189.167 65.841,189.167 65.749 C 189.167 65.657,188.942 65.482,188.667 65.360 C 188.392 65.238,188.167 65.033,188.167 64.903 C 188.167 64.773,188.050 64.667,187.907 64.667 C 187.764 64.667,187.694 64.591,187.751 64.498 C 187.809 64.404,187.628 64.284,187.344 64.227 C 187.063 64.171,186.833 64.059,186.833 63.979 C 186.833 63.899,186.646 63.833,186.417 63.833 C 186.188 63.833,186.000 63.754,186.000 63.657 C 186.000 63.560,186.087 63.534,186.192 63.599 C 186.312 63.673,186.340 63.645,186.266 63.526 C 186.201 63.420,185.884 63.333,185.564 63.333 C 185.217 63.333,185.022 63.266,185.083 63.167 C 185.140 63.075,185.088 62.994,184.968 62.986 C 184.304 62.945,183.741 62.788,183.631 62.614 C 183.541 62.473,183.504 62.486,183.503 62.658 C 183.501 62.846,183.456 62.856,183.300 62.700 C 183.179 62.579,182.593 62.500,181.818 62.500 C 180.874 62.500,180.512 62.439,180.446 62.267 C 180.311 61.915,175.073 61.903,174.938 62.255 M245.301 62.267 C 245.164 62.401,244.555 62.492,243.667 62.512 C 242.887 62.529,242.172 62.604,242.077 62.679 C 241.982 62.754,241.592 62.834,241.212 62.857 C 240.831 62.879,240.552 62.950,240.592 63.015 C 240.683 63.161,240.251 63.333,239.791 63.333 C 239.600 63.333,239.321 63.444,239.171 63.579 C 239.022 63.715,238.736 63.850,238.536 63.881 C 238.336 63.911,237.998 64.101,237.784 64.301 C 237.570 64.502,237.227 64.667,237.021 64.667 C 236.798 64.667,236.691 64.739,236.757 64.845 C 236.817 64.943,236.710 65.064,236.517 65.114 C 236.324 65.164,236.167 65.314,236.167 65.446 C 236.167 65.578,236.092 65.640,236.000 65.583 C 235.908 65.527,235.833 65.630,235.833 65.814 C 235.833 65.997,235.747 66.201,235.641 66.266 C 235.514 66.345,235.494 66.311,235.583 66.167 C 235.673 66.022,235.653 65.989,235.526 66.067 C 235.420 66.133,235.333 66.374,235.333 66.603 C 235.333 66.832,235.265 66.977,235.181 66.926 C 235.098 66.874,234.977 67.151,234.912 67.541 C 234.847 67.931,234.721 68.390,234.631 68.562 C 234.503 68.805,234.516 68.845,234.692 68.746 C 234.873 68.643,234.876 68.661,234.708 68.842 C 234.461 69.108,234.426 70.667,234.667 70.667 C 234.758 70.667,234.833 70.969,234.833 71.339 C 234.833 71.782,234.918 72.043,235.083 72.106 C 235.221 72.159,235.333 72.382,235.333 72.601 C 235.333 72.845,235.431 73.000,235.583 73.000 C 235.721 73.000,235.833 73.107,235.833 73.238 C 235.833 73.370,236.002 73.503,236.208 73.534 C 236.415 73.566,236.565 73.683,236.542 73.796 C 236.519 73.908,236.646 74.000,236.823 74.000 C 237.001 74.000,237.193 74.075,237.250 74.167 C 237.307 74.258,237.844 74.333,238.444 74.333 C 239.346 74.333,239.519 74.377,239.440 74.583 C 239.314 74.912,241.538 74.952,241.781 74.625 C 241.866 74.510,241.957 73.630,241.983 72.668 C 242.009 71.706,242.078 70.843,242.136 70.751 C 242.193 70.659,242.264 70.471,242.293 70.333 C 242.322 70.196,242.368 69.975,242.396 69.842 C 242.423 69.710,242.533 69.572,242.640 69.537 C 242.746 69.501,242.833 69.328,242.833 69.153 C 242.833 68.827,243.379 68.167,243.649 68.167 C 243.731 68.167,243.841 68.054,243.894 67.917 C 243.946 67.779,244.142 67.667,244.328 67.667 C 244.514 67.667,244.667 67.592,244.667 67.500 C 244.667 67.408,244.755 67.333,244.862 67.333 C 244.969 67.333,245.185 67.218,245.340 67.077 C 245.756 66.701,250.664 66.703,250.875 67.080 C 250.953 67.219,251.192 67.333,251.407 67.333 C 251.622 67.333,251.843 67.451,251.898 67.594 C 251.953 67.737,252.068 67.811,252.154 67.758 C 252.323 67.653,253.167 68.359,253.167 68.604 C 253.167 68.686,253.353 68.955,253.582 69.201 C 253.883 69.526,254.004 69.856,254.025 70.406 C 254.048 70.999,254.100 71.125,254.267 70.986 C 254.438 70.844,254.482 71.635,254.494 75.071 L 254.509 79.333 252.745 79.333 C 251.611 79.333,251.017 79.393,251.083 79.500 C 251.221 79.723,251.206 79.724,247.619 79.738 C 245.387 79.747,244.453 79.807,244.365 79.949 C 244.291 80.069,243.740 80.160,242.969 80.181 C 242.078 80.204,241.718 80.273,241.770 80.409 C 241.820 80.538,241.575 80.617,241.047 80.642 C 240.609 80.663,240.175 80.770,240.083 80.881 C 239.992 80.993,239.693 81.108,239.419 81.138 C 239.145 81.167,238.837 81.261,238.735 81.346 C 238.633 81.430,238.351 81.516,238.108 81.536 C 237.865 81.556,237.667 81.669,237.667 81.786 C 237.667 81.904,237.488 82.000,237.270 82.000 C 237.052 82.000,236.781 82.112,236.667 82.250 C 236.553 82.387,236.318 82.500,236.146 82.500 C 235.974 82.500,235.833 82.575,235.833 82.667 C 235.833 82.758,235.721 82.833,235.583 82.833 C 235.446 82.833,235.333 82.903,235.333 82.987 C 235.333 83.187,234.354 84.167,234.154 84.167 C 234.069 84.167,234.000 84.279,234.000 84.417 C 234.000 84.554,233.887 84.667,233.750 84.667 C 233.612 84.667,233.500 84.779,233.500 84.917 C 233.500 85.054,233.425 85.167,233.333 85.167 C 233.242 85.167,233.167 85.354,233.167 85.583 C 233.167 85.843,233.072 86.000,232.917 86.000 C 232.779 86.000,232.667 86.146,232.667 86.323 C 232.667 86.501,232.597 86.690,232.513 86.742 C 232.428 86.794,232.310 87.061,232.250 87.335 C 232.189 87.609,232.083 87.833,232.014 87.833 C 231.945 87.833,231.871 88.301,231.851 88.873 C 231.829 89.458,231.715 90.023,231.589 90.165 C 231.276 90.516,231.297 93.617,231.613 93.738 C 231.767 93.797,231.835 94.188,231.839 95.036 C 231.842 95.796,231.929 96.362,232.071 96.549 C 232.196 96.714,232.262 96.985,232.219 97.151 C 232.172 97.330,232.248 97.496,232.403 97.555 C 232.549 97.611,232.667 97.848,232.667 98.083 C 232.667 98.318,232.779 98.554,232.917 98.606 C 233.054 98.659,233.167 98.878,233.167 99.093 C 233.167 99.308,233.298 99.560,233.458 99.653 C 233.619 99.747,233.682 99.825,233.599 99.828 C 233.516 99.831,233.872 100.244,234.391 100.746 C 234.909 101.248,235.333 101.736,235.333 101.830 C 235.333 101.923,235.446 102.000,235.583 102.000 C 235.721 102.000,235.833 102.075,235.833 102.167 C 235.833 102.258,236.021 102.333,236.250 102.333 C 236.479 102.333,236.667 102.406,236.667 102.496 C 236.667 102.585,237.023 102.813,237.458 103.002 C 237.894 103.191,238.380 103.417,238.539 103.506 C 238.699 103.594,239.132 103.667,239.503 103.667 C 239.955 103.667,240.209 103.751,240.275 103.922 C 240.397 104.239,246.580 104.275,246.774 103.961 C 246.844 103.847,246.805 103.831,246.667 103.917 C 246.522 104.006,246.489 103.986,246.567 103.859 C 246.633 103.753,247.019 103.667,247.427 103.667 C 247.834 103.667,248.167 103.592,248.167 103.500 C 248.167 103.408,248.292 103.333,248.445 103.333 C 248.598 103.333,248.861 103.209,249.029 103.058 C 249.249 102.858,249.333 102.842,249.333 102.999 C 249.333 103.118,249.517 103.017,249.742 102.774 C 249.967 102.532,250.214 102.333,250.292 102.333 C 250.613 102.333,251.331 101.902,251.332 101.708 C 251.333 101.594,251.446 101.500,251.583 101.500 C 251.721 101.500,251.815 101.444,251.793 101.375 C 251.730 101.180,252.695 100.167,252.944 100.167 C 253.067 100.167,253.151 100.110,253.131 100.042 C 253.071 99.828,253.569 99.167,253.790 99.167 C 253.906 99.167,254.000 99.072,254.000 98.957 C 254.000 98.841,254.188 98.544,254.417 98.297 C 254.646 98.050,254.833 97.778,254.833 97.692 C 254.833 97.606,254.946 97.492,255.083 97.440 C 255.279 97.365,255.333 97.484,255.333 97.987 C 255.333 98.406,255.421 98.665,255.583 98.727 C 255.774 98.800,255.833 99.112,255.833 100.045 C 255.833 100.717,255.906 101.339,255.994 101.428 C 256.083 101.516,256.171 101.850,256.190 102.169 C 256.264 103.408,255.896 103.333,261.923 103.333 L 267.333 103.333 267.333 101.609 C 267.333 99.464,267.235 99.333,265.612 99.333 C 265.000 99.333,264.500 99.266,264.500 99.185 C 264.500 99.103,264.309 98.988,264.077 98.930 C 263.844 98.871,263.688 98.767,263.731 98.697 C 263.774 98.627,263.590 98.423,263.322 98.243 C 262.955 97.997,262.834 97.786,262.834 97.389 C 262.834 97.099,262.760 96.836,262.670 96.806 C 262.566 96.770,262.503 92.284,262.496 84.346 C 262.486 73.972,262.447 71.913,262.253 71.763 C 262.116 71.656,261.998 71.177,261.963 70.583 C 261.923 69.913,261.837 69.597,261.702 69.625 C 261.575 69.651,261.500 69.454,261.500 69.095 C 261.500 68.781,261.387 68.411,261.250 68.274 C 261.112 68.136,261.000 67.969,261.000 67.901 C 261.000 67.644,260.430 66.500,260.301 66.500 C 260.227 66.500,260.167 66.375,260.167 66.222 C 260.167 66.069,260.128 65.983,260.081 66.030 C 260.034 66.077,259.555 65.696,259.018 65.183 C 258.480 64.670,257.937 64.226,257.811 64.196 C 257.686 64.166,257.558 64.072,257.528 63.987 C 257.497 63.903,257.316 63.833,257.124 63.833 C 256.933 63.833,256.647 63.717,256.490 63.574 C 256.333 63.432,256.044 63.303,255.848 63.289 C 255.652 63.274,255.522 63.184,255.558 63.089 C 255.595 62.992,255.325 62.895,254.938 62.868 C 254.561 62.841,254.181 62.747,254.093 62.660 C 254.005 62.572,253.354 62.500,252.645 62.500 C 251.756 62.500,251.284 62.427,251.121 62.264 C 250.798 61.941,245.630 61.943,245.301 62.267 M353.749 62.272 C 353.564 62.407,353.016 62.500,352.405 62.500 C 351.838 62.500,351.099 62.615,350.763 62.755 C 350.427 62.896,350.085 62.969,350.004 62.919 C 349.923 62.869,349.802 62.916,349.736 63.023 C 349.655 63.153,349.688 63.173,349.833 63.083 C 349.978 62.994,350.011 63.014,349.933 63.141 C 349.867 63.247,349.631 63.333,349.407 63.333 C 349.183 63.333,349.000 63.407,349.000 63.497 C 349.000 63.587,348.813 63.707,348.584 63.765 C 348.356 63.822,348.210 63.936,348.261 64.018 C 348.353 64.167,348.114 64.233,347.692 64.175 C 347.568 64.158,347.516 64.224,347.576 64.322 C 347.637 64.420,347.618 64.500,347.534 64.500 C 347.307 64.500,346.500 65.288,346.500 65.510 C 346.500 65.616,346.391 65.661,346.258 65.610 C 346.102 65.550,346.048 65.597,346.104 65.743 C 346.154 65.875,346.045 66.016,345.843 66.080 C 345.652 66.141,345.538 66.260,345.591 66.345 C 345.643 66.430,345.574 66.500,345.438 66.500 C 345.290 66.500,345.167 66.687,345.136 66.958 C 345.106 67.216,344.992 67.398,344.875 67.375 C 344.760 67.352,344.667 67.488,344.667 67.677 C 344.667 67.865,344.597 67.977,344.513 67.924 C 344.428 67.872,344.324 67.961,344.282 68.123 C 344.240 68.284,344.197 68.113,344.186 67.742 C 344.175 67.370,344.097 66.995,344.012 66.908 C 343.926 66.821,343.832 66.244,343.803 65.625 C 343.769 64.894,343.680 64.501,343.551 64.500 C 343.431 64.500,343.331 64.183,343.301 63.708 L 343.250 62.917 336.875 62.873 L 330.500 62.829 330.500 64.831 L 330.500 66.833 332.083 66.833 C 332.985 66.833,333.667 66.902,333.667 66.994 C 333.667 67.082,333.967 67.235,334.333 67.333 C 334.700 67.432,335.000 67.576,335.000 67.654 C 335.000 67.731,335.150 67.834,335.332 67.881 C 335.515 67.929,335.717 68.107,335.781 68.276 C 335.846 68.445,335.997 68.683,336.117 68.805 C 336.238 68.927,336.293 69.096,336.241 69.181 C 336.188 69.266,336.263 69.381,336.406 69.436 C 336.803 69.588,336.804 96.624,336.407 96.777 C 336.264 96.832,336.186 96.977,336.233 97.100 C 336.281 97.223,336.210 97.433,336.076 97.567 C 335.943 97.700,335.833 97.894,335.833 97.998 C 335.833 98.102,335.763 98.143,335.677 98.090 C 335.591 98.036,335.460 98.095,335.385 98.220 C 335.251 98.446,334.474 99.001,334.217 99.055 C 334.144 99.071,334.102 99.140,334.125 99.208 C 334.148 99.277,333.660 99.342,333.042 99.354 C 331.099 99.389,331.000 99.398,331.000 99.534 C 331.000 99.607,330.921 99.667,330.823 99.667 C 330.726 99.667,330.693 99.593,330.749 99.502 C 330.807 99.408,330.741 99.379,330.593 99.436 C 330.451 99.490,330.372 99.594,330.417 99.667 C 330.461 99.739,330.383 99.842,330.243 99.896 C 330.033 99.977,329.996 100.284,330.036 101.622 L 330.083 103.250 340.458 103.293 L 350.833 103.336 350.833 101.522 C 350.833 99.531,350.737 99.308,349.896 99.354 C 348.550 99.428,347.169 99.321,347.208 99.145 C 347.231 99.042,347.027 98.925,346.755 98.885 C 346.264 98.813,345.272 97.901,345.421 97.660 C 345.463 97.591,345.386 97.492,345.249 97.439 C 345.112 97.387,345.000 97.187,345.000 96.995 C 345.000 96.804,344.925 96.693,344.833 96.750 C 344.723 96.818,344.667 93.340,344.667 86.440 C 344.667 79.312,344.722 76.009,344.842 75.969 C 344.938 75.937,345.059 75.500,345.110 74.997 C 345.161 74.495,345.270 74.012,345.352 73.925 C 345.433 73.838,345.502 73.613,345.505 73.425 C 345.508 73.237,345.621 72.938,345.755 72.760 C 345.890 72.582,346.000 72.297,346.000 72.127 C 346.000 71.957,346.188 71.644,346.417 71.431 C 346.646 71.219,346.833 70.885,346.833 70.689 C 346.833 70.493,346.908 70.333,347.000 70.333 C 347.092 70.333,347.467 70.033,347.833 69.667 C 348.200 69.300,348.613 69.000,348.750 69.000 C 348.887 69.000,349.000 68.925,349.000 68.833 C 349.000 68.742,349.152 68.667,349.339 68.667 C 349.525 68.667,349.720 68.554,349.773 68.417 C 349.837 68.251,350.101 68.166,350.559 68.164 C 351.076 68.162,351.187 68.120,351.000 67.995 C 350.829 67.881,351.491 67.849,353.083 67.895 C 355.739 67.973,356.654 68.106,356.781 68.436 C 356.829 68.563,357.003 68.667,357.167 68.667 C 357.330 68.667,357.508 68.779,357.560 68.917 C 357.613 69.054,357.775 69.167,357.921 69.167 C 358.067 69.167,358.140 69.242,358.083 69.333 C 358.027 69.425,358.083 69.500,358.208 69.500 C 358.334 69.500,358.657 69.798,358.926 70.163 C 359.196 70.527,359.510 70.827,359.625 70.829 C 359.751 70.832,359.833 71.063,359.833 71.417 C 359.833 71.737,359.899 72.000,359.979 72.000 C 360.104 72.000,360.345 72.794,360.315 73.107 C 360.309 73.165,360.382 73.260,360.477 73.319 C 360.571 73.377,360.662 74.116,360.679 74.961 C 360.699 75.941,360.791 76.602,360.933 76.790 C 361.115 77.029,361.157 79.517,361.161 90.212 L 361.167 103.340 368.000 103.330 L 374.833 103.319 374.833 101.685 C 374.833 99.616,374.754 99.526,372.814 99.386 C 371.829 99.315,371.353 99.207,371.197 99.018 C 371.075 98.871,371.021 98.842,371.078 98.954 C 371.134 99.066,370.881 98.998,370.516 98.802 C 370.150 98.607,369.866 98.402,369.884 98.346 C 369.902 98.289,369.748 98.062,369.542 97.840 C 369.335 97.619,369.155 97.245,369.141 97.010 C 369.097 96.274,369.083 96.218,368.876 95.968 C 368.722 95.783,368.663 92.915,368.628 84.084 C 368.593 74.953,368.538 72.429,368.375 72.375 C 368.246 72.332,368.167 71.996,368.167 71.496 C 368.167 71.051,368.092 70.640,368.000 70.583 C 367.908 70.527,367.833 70.230,367.833 69.925 C 367.833 69.584,367.736 69.332,367.583 69.273 C 367.437 69.217,367.333 68.967,367.333 68.672 C 367.333 68.334,367.251 68.167,367.083 68.167 C 366.924 68.167,366.833 68.006,366.833 67.722 C 366.833 67.478,366.785 67.326,366.727 67.384 C 366.668 67.443,366.474 67.212,366.296 66.871 C 366.118 66.529,365.566 65.872,365.069 65.410 C 364.573 64.948,364.167 64.482,364.167 64.374 C 364.167 64.266,364.066 64.216,363.943 64.263 C 363.821 64.310,363.624 64.233,363.506 64.091 C 363.389 63.949,363.156 63.833,362.989 63.833 C 362.618 63.833,362.420 63.560,362.707 63.444 C 362.822 63.398,362.598 63.354,362.208 63.346 C 361.819 63.339,361.500 63.266,361.500 63.183 C 361.500 62.998,360.566 62.656,360.431 62.791 C 360.377 62.845,360.333 62.801,360.333 62.694 C 360.333 62.564,359.929 62.500,359.104 62.500 C 358.238 62.500,357.815 62.429,357.675 62.260 C 357.402 61.931,354.202 61.940,353.749 62.272 M109.167 64.833 L 109.167 66.833 110.500 66.833 C 111.454 66.833,111.834 66.893,111.836 67.042 C 111.838 67.181,111.892 67.167,112.000 67.000 C 112.138 66.786,112.162 66.792,112.164 67.042 C 112.166 67.264,112.307 67.333,112.760 67.333 C 113.086 67.333,113.312 67.400,113.261 67.482 C 113.210 67.564,113.356 67.678,113.584 67.735 C 113.813 67.793,114.000 67.913,114.000 68.003 C 114.000 68.093,114.100 68.167,114.223 68.167 C 114.346 68.167,114.549 68.485,114.673 68.875 C 114.798 69.265,114.995 69.735,115.111 69.921 C 115.276 70.184,115.333 72.857,115.370 81.991 C 115.407 91.194,115.462 93.737,115.625 93.792 C 115.757 93.836,115.833 94.190,115.833 94.764 C 115.833 95.260,115.908 95.667,116.000 95.667 C 116.092 95.667,116.167 95.940,116.167 96.273 C 116.167 96.624,116.274 96.958,116.420 97.065 C 116.560 97.167,116.691 97.494,116.712 97.792 C 116.733 98.093,116.842 98.333,116.958 98.333 C 117.144 98.333,117.249 98.671,117.182 99.054 C 117.169 99.130,117.240 99.141,117.340 99.079 C 117.443 99.015,117.562 99.118,117.614 99.317 C 117.664 99.509,117.772 99.667,117.853 99.667 C 117.934 99.667,118.000 99.763,118.000 99.880 C 118.000 100.100,118.577 100.904,118.970 101.233 C 119.091 101.334,119.322 101.529,119.483 101.667 C 119.644 101.804,119.995 102.046,120.263 102.204 C 120.531 102.362,120.737 102.553,120.720 102.627 C 120.704 102.702,120.877 102.778,121.106 102.797 C 121.335 102.816,121.635 102.944,121.773 103.082 C 121.911 103.220,122.239 103.333,122.502 103.333 C 122.765 103.333,123.027 103.408,123.083 103.500 C 123.140 103.592,123.519 103.667,123.927 103.667 C 124.473 103.667,124.667 103.732,124.667 103.917 C 124.667 104.131,125.147 104.167,127.988 104.167 C 130.718 104.167,131.354 104.122,131.560 103.917 C 131.709 103.767,132.116 103.667,132.571 103.667 C 132.990 103.667,133.333 103.592,133.333 103.500 C 133.333 103.408,133.550 103.333,133.816 103.333 C 134.090 103.333,134.339 103.226,134.394 103.083 C 134.446 102.946,134.679 102.833,134.911 102.833 C 135.175 102.833,135.333 102.740,135.333 102.583 C 135.333 102.428,135.491 102.333,135.750 102.333 C 135.979 102.333,136.167 102.260,136.167 102.170 C 136.167 102.080,136.349 101.961,136.571 101.905 C 136.794 101.849,137.018 101.693,137.070 101.558 C 137.122 101.422,137.251 101.366,137.358 101.432 C 137.471 101.502,137.507 101.479,137.444 101.377 C 137.385 101.282,137.542 101.072,137.793 100.911 C 138.310 100.581,138.742 100.164,138.824 99.917 C 138.905 99.675,139.378 98.953,139.623 98.696 C 139.739 98.575,139.833 98.369,139.833 98.238 C 139.833 97.559,140.170 98.124,140.188 98.833 C 140.221 100.174,140.232 100.239,140.454 100.470 C 140.581 100.601,140.667 101.118,140.667 101.748 C 140.667 103.476,140.012 103.317,147.182 103.329 L 153.500 103.340 153.497 101.629 C 153.494 99.281,153.651 99.424,150.954 99.331 C 150.241 99.306,149.610 99.210,149.553 99.117 C 149.489 99.014,149.533 99.001,149.667 99.083 C 149.811 99.173,149.845 99.153,149.766 99.026 C 149.701 98.920,149.454 98.833,149.218 98.833 C 148.736 98.833,147.930 98.081,148.106 97.796 C 148.173 97.688,148.141 97.663,148.026 97.734 C 147.911 97.805,147.833 97.746,147.833 97.588 C 147.833 97.442,147.715 97.277,147.569 97.222 C 147.357 97.140,147.349 97.093,147.528 96.979 C 147.694 96.874,147.698 96.838,147.542 96.836 C 147.376 96.834,147.333 93.322,147.333 79.838 L 147.333 62.843 140.292 62.880 L 133.250 62.917 133.203 64.875 L 133.156 66.833 134.665 66.833 C 136.012 66.833,136.248 66.881,136.878 67.278 C 137.266 67.523,137.600 67.692,137.620 67.653 C 137.741 67.420,138.811 68.745,138.905 69.245 C 138.965 69.569,139.087 69.833,139.174 69.833 C 139.274 69.833,139.333 73.746,139.333 80.250 C 139.333 88.494,139.290 90.658,139.125 90.625 C 138.984 90.597,138.900 90.867,138.866 91.458 C 138.839 91.940,138.749 92.333,138.668 92.333 C 138.587 92.333,138.497 92.615,138.468 92.958 C 138.436 93.349,138.339 93.568,138.208 93.542 C 138.094 93.519,138.009 93.556,138.020 93.625 C 138.091 94.079,137.964 94.500,137.755 94.500 C 137.619 94.500,137.548 94.599,137.596 94.724 C 137.644 94.849,137.275 95.361,136.758 95.887 C 136.249 96.403,135.833 96.890,135.833 96.969 C 135.833 97.047,135.737 97.111,135.620 97.111 C 135.337 97.111,134.500 97.665,134.500 97.853 C 134.500 97.934,134.196 98.000,133.823 98.000 C 133.415 98.000,133.188 98.066,133.250 98.167 C 133.371 98.362,133.264 98.371,130.417 98.406 C 128.932 98.424,128.108 98.365,127.800 98.216 C 127.552 98.097,127.215 97.999,127.050 97.997 C 126.885 97.995,126.451 97.733,126.085 97.413 C 125.719 97.094,125.372 96.833,125.313 96.833 C 125.254 96.833,125.164 96.676,125.114 96.483 C 125.064 96.290,124.943 96.183,124.845 96.243 C 124.745 96.305,124.667 96.228,124.667 96.070 C 124.667 95.914,124.554 95.703,124.417 95.602 C 124.280 95.500,124.151 95.210,124.131 94.958 C 124.110 94.706,124.040 94.500,123.974 94.500 C 123.908 94.500,123.830 94.219,123.802 93.875 C 123.771 93.503,123.670 93.266,123.551 93.288 C 123.265 93.344,123.226 91.199,123.239 76.127 C 123.248 65.344,123.210 62.988,123.028 62.918 C 122.906 62.872,119.737 62.833,115.986 62.833 L 109.167 62.833 109.167 64.833 M303.870 64.802 L 303.917 66.750 305.315 66.799 C 306.199 66.830,306.842 66.937,307.061 67.090 C 307.251 67.224,307.578 67.333,307.787 67.333 C 307.996 67.333,308.167 67.410,308.167 67.504 C 308.167 67.597,308.373 67.765,308.625 67.877 C 309.164 68.115,309.500 68.410,309.500 68.643 C 309.500 68.735,309.610 68.920,309.744 69.054 C 309.898 69.208,310.000 69.681,310.020 70.329 C 310.038 70.938,310.143 71.453,310.277 71.587 C 310.631 71.941,310.600 95.259,310.246 95.395 C 310.070 95.463,310.000 95.753,310.000 96.411 C 310.000 97.060,309.938 97.321,309.792 97.292 C 309.675 97.268,309.605 97.379,309.633 97.544 C 309.660 97.706,309.566 97.882,309.424 97.937 C 309.283 97.991,309.167 98.145,309.167 98.278 C 309.167 98.411,309.091 98.473,308.999 98.416 C 308.907 98.359,308.786 98.429,308.731 98.573 C 308.676 98.716,308.532 98.833,308.411 98.833 C 308.290 98.833,308.084 98.940,307.953 99.070 C 307.800 99.224,307.222 99.333,306.317 99.379 C 305.547 99.418,304.654 99.502,304.333 99.566 C 303.911 99.649,303.819 99.633,304.000 99.509 C 304.221 99.359,304.220 99.338,303.992 99.336 C 303.446 99.330,303.333 99.708,303.333 101.535 L 303.333 103.336 314.208 103.293 L 325.083 103.250 325.132 101.763 C 325.159 100.945,325.142 100.176,325.095 100.053 C 325.048 99.930,325.013 99.783,325.019 99.725 C 325.032 99.584,324.631 99.339,324.380 99.336 C 324.255 99.334,324.220 99.445,324.289 99.625 C 324.393 99.896,324.373 99.898,323.992 99.649 C 323.713 99.466,323.140 99.371,322.187 99.348 C 321.229 99.325,320.716 99.239,320.550 99.074 C 320.418 98.942,320.165 98.833,319.988 98.833 C 319.811 98.833,319.667 98.753,319.667 98.655 C 319.667 98.437,319.248 98.000,319.039 98.000 C 318.889 98.000,318.384 96.685,318.454 96.474 C 318.473 96.414,318.379 96.274,318.245 96.162 C 318.033 95.986,318.000 93.767,318.000 79.497 C 318.000 64.321,317.978 63.027,317.724 62.930 C 317.572 62.871,314.382 62.830,310.635 62.839 L 303.823 62.854 303.870 64.802 M184.160 86.667 C 184.149 88.582,184.076 90.000,183.987 90.000 C 183.903 90.000,183.833 90.533,183.833 91.184 C 183.833 92.169,183.791 92.353,183.583 92.273 C 183.391 92.199,183.333 92.310,183.333 92.759 C 183.333 93.300,182.646 94.673,182.308 94.806 C 182.230 94.836,182.167 94.962,182.167 95.084 C 182.167 95.207,181.942 95.533,181.667 95.808 C 181.392 96.083,181.167 96.388,181.167 96.487 C 181.167 96.586,181.064 96.667,180.940 96.667 C 180.815 96.667,180.431 96.891,180.086 97.164 C 179.742 97.438,179.394 97.621,179.313 97.571 C 179.233 97.521,179.167 97.597,179.167 97.740 C 179.167 97.886,179.025 98.000,178.845 98.000 C 178.668 98.000,178.425 98.096,178.304 98.214 C 178.182 98.332,177.804 98.416,177.462 98.401 C 177.107 98.385,176.759 98.472,176.650 98.603 C 176.418 98.883,172.911 98.945,173.083 98.667 C 173.194 98.488,173.191 98.486,172.370 98.418 C 172.034 98.390,171.665 98.201,171.412 97.927 C 171.185 97.683,171.000 97.538,171.000 97.606 C 171.000 97.674,170.850 97.569,170.667 97.372 C 170.483 97.175,170.333 96.931,170.333 96.830 C 170.333 96.730,170.258 96.693,170.167 96.750 C 170.075 96.807,170.000 96.745,170.000 96.614 C 170.000 96.482,169.887 96.281,169.750 96.167 C 169.612 96.053,169.500 95.748,169.500 95.489 C 169.500 95.231,169.425 94.973,169.333 94.917 C 169.234 94.855,169.167 93.748,169.167 92.157 C 169.167 90.497,169.229 89.500,169.333 89.500 C 169.425 89.500,169.500 89.200,169.500 88.833 C 169.500 88.352,169.569 88.167,169.750 88.167 C 169.888 88.167,169.991 88.110,169.980 88.042 C 169.916 87.633,170.034 87.333,170.260 87.333 C 170.403 87.333,170.473 87.258,170.416 87.165 C 170.359 87.073,170.429 86.953,170.573 86.898 C 170.716 86.843,170.833 86.693,170.833 86.566 C 170.833 86.438,170.905 86.333,170.992 86.333 C 171.079 86.333,171.398 86.082,171.700 85.774 C 172.003 85.467,172.344 85.248,172.458 85.288 C 172.573 85.328,172.667 85.280,172.667 85.181 C 172.667 85.081,172.784 85.000,172.927 85.000 C 173.069 85.000,173.137 84.920,173.076 84.822 C 173.016 84.724,173.068 84.665,173.192 84.690 C 173.542 84.761,174.333 84.512,174.333 84.330 C 174.333 84.240,174.646 84.167,175.029 84.167 C 175.411 84.167,175.842 84.059,175.987 83.928 C 176.178 83.755,176.788 83.679,178.202 83.651 C 179.275 83.629,180.114 83.549,180.066 83.473 C 180.019 83.396,180.925 83.333,182.079 83.333 L 184.178 83.333 184.160 86.667 M254.500 87.595 C 254.500 91.161,254.459 91.898,254.250 92.107 C 254.112 92.245,254.000 92.542,254.000 92.767 C 254.000 92.993,253.900 93.216,253.778 93.262 C 253.656 93.309,253.556 93.449,253.556 93.572 C 253.556 93.920,253.003 95.000,252.826 95.000 C 252.738 95.000,252.667 95.071,252.667 95.158 C 252.667 95.245,252.479 95.518,252.250 95.766 C 252.021 96.013,251.833 96.317,251.833 96.441 C 251.833 96.565,251.694 96.667,251.524 96.667 C 251.354 96.667,251.013 96.854,250.766 97.083 C 250.518 97.313,250.254 97.500,250.178 97.500 C 250.103 97.500,249.947 97.612,249.833 97.750 C 249.719 97.888,249.482 98.000,249.307 98.000 C 249.132 98.000,248.819 98.111,248.611 98.247 C 248.404 98.383,248.060 98.460,247.846 98.419 C 247.632 98.378,247.300 98.454,247.108 98.589 C 246.681 98.888,243.897 98.940,243.800 98.650 C 243.749 98.497,243.410 98.420,242.448 98.344 C 242.374 98.338,242.360 98.258,242.417 98.167 C 242.477 98.069,242.307 98.000,242.010 98.000 C 241.729 98.000,241.500 97.915,241.500 97.811 C 241.500 97.707,241.313 97.448,241.083 97.235 C 240.854 97.023,240.667 96.698,240.667 96.513 C 240.667 96.283,240.588 96.207,240.417 96.273 C 240.228 96.345,240.167 96.245,240.167 95.865 C 240.167 95.588,240.078 95.332,239.971 95.296 C 239.695 95.204,239.696 89.571,239.971 89.296 C 240.079 89.188,240.167 88.888,240.167 88.628 C 240.167 88.363,240.276 88.114,240.416 88.061 C 240.553 88.008,240.625 87.901,240.576 87.822 C 240.528 87.743,240.641 87.526,240.827 87.339 C 241.014 87.153,241.185 86.944,241.208 86.875 C 241.231 86.806,241.312 86.771,241.387 86.796 C 241.463 86.821,241.477 86.764,241.418 86.669 C 241.360 86.575,241.485 86.433,241.698 86.354 C 241.910 86.276,242.065 86.145,242.042 86.064 C 242.019 85.983,242.094 85.913,242.208 85.909 C 242.323 85.905,242.398 85.811,242.375 85.701 C 242.352 85.590,242.446 85.500,242.583 85.500 C 242.721 85.500,242.833 85.388,242.833 85.250 C 242.833 85.036,243.249 84.908,243.708 84.980 C 243.777 84.991,243.833 84.925,243.833 84.833 C 243.833 84.742,244.088 84.667,244.399 84.667 C 244.748 84.667,245.001 84.571,245.060 84.417 C 245.120 84.261,245.374 84.167,245.733 84.167 C 246.050 84.167,246.422 84.054,246.560 83.917 C 246.753 83.723,247.245 83.667,248.728 83.667 C 249.828 83.667,250.691 83.595,250.750 83.500 C 250.809 83.405,251.641 83.333,252.677 83.333 L 254.500 83.333 254.500 87.595 M297.892 101.000 C 297.892 101.779,297.920 102.098,297.955 101.708 C 297.990 101.319,297.990 100.681,297.955 100.292 C 297.920 99.902,297.892 100.221,297.892 101.000 M76.417 117.724 L 76.417 124.250 61.391 124.250 C 53.127 124.250,46.400 124.306,46.442 124.375 C 46.617 124.658,76.457 124.520,76.566 124.236 C 76.713 123.853,76.690 111.367,76.542 111.276 C 76.473 111.233,76.417 114.135,76.417 117.724 " stroke="none" fill="#c40414" fill-rule="evenodd"></path><path id="path3" d="M2.367 1.533 C 2.214 1.686,2.167 5.894,2.167 19.454 L 2.167 37.175 2.594 37.337 C 3.262 37.591,27.711 37.555,27.967 37.300 C 28.114 37.153,28.167 35.663,28.167 31.633 L 28.167 26.167 36.383 26.167 C 42.552 26.167,44.650 26.217,44.800 26.367 C 44.949 26.516,45.000 28.388,45.000 33.763 C 45.000 39.623,45.042 40.994,45.226 41.147 C 45.392 41.284,49.808 41.324,61.601 41.292 L 77.750 41.250 77.793 33.842 C 77.827 28.170,77.885 26.403,78.043 26.303 C 78.283 26.151,94.176 26.117,94.570 26.268 C 94.803 26.357,94.833 26.998,94.833 31.762 C 94.833 36.923,94.847 37.162,95.156 37.327 C 95.585 37.557,119.470 37.567,120.072 37.337 L 120.500 37.175 120.500 19.516 C 120.500 3.685,120.473 1.830,120.238 1.595 C 119.891 1.249,2.713 1.187,2.367 1.533 M120.000 19.500 L 120.000 37.167 107.583 37.167 L 95.167 37.167 95.167 31.764 C 95.167 28.792,95.121 26.242,95.066 26.097 C 94.977 25.867,77.998 25.649,77.796 25.875 C 77.775 25.898,77.719 29.292,77.671 33.417 L 77.583 40.917 61.594 40.959 C 48.912 40.993,45.577 40.958,45.471 40.793 C 45.398 40.677,45.337 37.355,45.336 33.408 C 45.334 28.053,45.283 26.183,45.133 26.033 C 44.789 25.689,28.067 25.751,27.934 26.097 C 27.879 26.242,27.833 28.792,27.833 31.764 L 27.833 37.167 15.167 37.167 L 2.500 37.167 2.500 19.611 C 2.500 9.956,2.550 2.006,2.611 1.944 C 2.672 1.883,29.110 1.833,61.361 1.833 L 120.000 1.833 120.000 19.500 M19.910 43.708 C 19.866 43.823,19.850 48.229,19.873 53.500 L 19.917 63.083 20.000 53.292 C 20.046 47.906,20.062 43.500,20.036 43.500 C 20.011 43.500,19.954 43.594,19.910 43.708 M87.555 60.917 C 87.555 61.558,87.586 61.800,87.622 61.455 C 87.658 61.109,87.657 60.584,87.620 60.288 C 87.583 59.992,87.554 60.275,87.555 60.917 M45.188 60.225 C 45.053 60.387,44.990 66.219,44.959 81.266 L 44.917 102.083 39.333 102.167 C 36.262 102.212,33.656 102.311,33.542 102.385 C 33.377 102.491,33.333 105.884,33.333 118.427 L 33.333 134.334 61.625 134.292 L 89.917 134.250 89.959 118.479 C 89.998 103.968,89.980 102.691,89.725 102.479 C 89.507 102.298,88.239 102.233,83.683 102.167 L 77.917 102.083 77.833 81.083 L 77.750 60.083 74.667 60.083 L 71.583 60.083 71.583 84.417 L 71.583 108.750 75.250 108.845 C 77.267 108.897,78.935 108.953,78.958 108.970 C 79.051 109.037,78.993 125.992,78.899 126.236 C 78.807 126.474,77.118 126.500,61.482 126.500 L 44.167 126.500 44.167 117.667 L 44.167 108.833 47.911 108.833 C 51.442 108.833,51.665 108.815,51.827 108.511 C 51.944 108.293,52.000 100.485,52.000 84.417 C 52.000 68.349,51.944 60.540,51.827 60.322 C 51.605 59.907,45.526 59.817,45.188 60.225 M51.417 84.417 L 51.417 108.417 47.711 108.462 C 44.032 108.506,44.004 108.509,43.915 108.878 C 43.865 109.083,43.845 113.150,43.871 117.917 L 43.917 126.583 61.543 126.626 L 79.170 126.668 79.126 117.626 L 79.083 108.583 75.417 108.500 L 71.750 108.417 71.750 84.417 L 71.750 60.417 74.667 60.417 L 77.583 60.417 77.668 81.500 C 77.715 93.096,77.771 102.602,77.793 102.625 C 77.815 102.648,80.496 102.667,83.750 102.667 L 89.667 102.667 89.667 118.417 L 89.667 134.167 61.792 134.164 C 46.460 134.163,33.823 134.102,33.707 134.029 C 33.542 133.923,33.507 130.671,33.541 118.323 L 33.583 102.750 39.236 102.706 C 43.068 102.676,44.960 102.603,45.111 102.477 C 45.294 102.325,45.333 98.659,45.333 81.577 C 45.333 70.183,45.380 60.740,45.436 60.593 C 45.526 60.359,45.907 60.331,48.478 60.371 L 51.417 60.417 51.417 84.417 M95.083 63.167 L 87.583 63.255 95.032 63.294 C 99.860 63.320,102.517 63.275,102.583 63.167 C 102.640 63.075,102.663 63.018,102.635 63.039 C 102.607 63.061,99.208 63.118,95.083 63.167 M24.042 63.292 C 26.219 63.318,29.781 63.318,31.958 63.292 C 34.135 63.265,32.354 63.244,28.000 63.244 C 23.646 63.244,21.865 63.265,24.042 63.292 M69.468 111.035 C 69.533 111.100,71.176 111.175,73.119 111.202 C 75.061 111.228,76.597 111.197,76.532 111.132 C 76.467 111.067,74.824 110.992,72.881 110.965 C 70.939 110.938,69.403 110.970,69.468 111.035 M48.199 111.124 C 49.179 111.154,50.829 111.154,51.866 111.125 C 52.902 111.095,52.100 111.071,50.083 111.071 C 48.067 111.071,47.219 111.095,48.199 111.124 M46.205 117.758 C 46.176 122.642,46.217 124.317,46.367 124.467 C 46.520 124.620,50.060 124.657,61.492 124.626 L 76.417 124.586 61.417 124.501 L 46.417 124.417 46.330 117.833 L 46.244 111.250 46.205 117.758 " stroke="none" fill="#6c6c6c" fill-rule="evenodd"></path><path id="path4" d="M20.111 43.778 C 20.050 43.839,20.000 48.189,20.000 53.444 L 20.000 63.000 28.000 63.000 L 36.000 63.000 36.000 60.434 C 36.000 58.249,36.039 57.854,36.264 57.768 C 36.863 57.538,53.951 57.657,54.147 57.893 C 54.284 58.059,54.323 65.167,54.292 84.601 L 54.250 111.083 50.333 111.167 L 46.417 111.250 46.417 117.750 L 46.417 124.250 61.417 124.250 L 76.417 124.250 76.417 117.750 L 76.417 111.250 72.833 111.167 L 69.250 111.083 69.204 84.750 C 69.179 70.267,69.200 58.247,69.250 58.040 L 69.340 57.664 78.462 57.707 L 87.583 57.750 87.629 60.375 L 87.675 63.000 95.088 63.000 L 102.500 63.000 102.500 53.333 L 102.500 43.667 61.361 43.667 C 38.735 43.667,20.172 43.717,20.111 43.778 M203.583 46.333 C 203.649 46.440,206.141 46.500,210.510 46.500 C 214.948 46.500,217.333 46.442,217.333 46.333 C 217.333 46.225,214.913 46.167,210.407 46.167 C 205.832 46.167,203.515 46.223,203.583 46.333 M217.624 46.622 C 217.788 46.738,217.841 51.815,217.875 70.676 L 217.918 94.583 217.918 70.597 C 217.917 49.418,217.887 46.603,217.667 46.543 C 217.482 46.493,217.471 46.513,217.624 46.622 M203.750 50.167 C 203.807 50.258,204.017 50.332,204.218 50.331 C 204.515 50.329,204.537 50.298,204.333 50.167 C 204.005 49.954,203.619 49.954,203.750 50.167 M284.458 53.622 C 284.848 53.657,285.485 53.657,285.875 53.622 C 286.265 53.587,285.946 53.558,285.167 53.558 C 284.387 53.558,284.069 53.587,284.458 53.622 M123.246 76.417 C 123.246 83.475,123.267 86.338,123.292 82.779 C 123.317 79.220,123.317 73.445,123.292 69.946 C 123.266 66.447,123.246 69.358,123.246 76.417 M253.503 69.280 C 253.507 69.535,253.815 69.908,253.927 69.795 C 253.989 69.733,253.918 69.561,253.770 69.413 C 253.621 69.264,253.501 69.204,253.503 69.280 M178.375 79.788 C 178.719 79.824,179.281 79.824,179.625 79.788 C 179.969 79.752,179.688 79.723,179.000 79.723 C 178.313 79.723,178.031 79.752,178.375 79.788 M249.042 79.788 C 249.385 79.824,249.948 79.824,250.292 79.788 C 250.635 79.752,250.354 79.723,249.667 79.723 C 248.979 79.723,248.698 79.752,249.042 79.788 M297.512 101.018 C 297.492 102.155,297.540 102.662,297.658 102.589 C 297.871 102.457,297.897 99.559,297.687 99.429 C 297.607 99.380,297.528 100.094,297.512 101.018 " stroke="none" fill="#9c0404" fill-rule="evenodd"></path></g></svg>